<svg width="32" height="38" viewBox="0 0 32 38" fill="none" xmlns="http://www.w3.org/2000/svg">
<path d="M31.26 3.13286C31.0276 2.95424 30.7561 2.82738 30.4654 2.7616C30.1747 2.69582 29.8721 2.69279 29.58 2.75274C27.4429 3.17836 25.2367 3.18379 23.0973 2.76867C20.9578 2.35356 18.9305 1.52669 17.14 0.338981C16.8052 0.11827 16.4075 0 16 0C15.5925 0 15.1948 0.11827 14.86 0.338981C13.0695 1.52669 11.0422 2.35356 8.90274 2.76867C6.76332 3.18379 4.55714 3.17836 2.42001 2.75274C2.12789 2.69279 1.82534 2.69582 1.53461 2.7616C1.24388 2.82738 0.972362 2.95424 0.740011 3.13286C0.50797 3.31174 0.321053 3.53775 0.192996 3.79429C0.0649389 4.05083 -0.00100438 4.33138 1.1563e-05 4.61532V18.7747C-0.00176651 21.4997 0.681557 24.1857 1.99308 26.6089C3.3046 29.0322 5.20637 31.1226 7.54001 32.7061L14.84 37.6477C15.1787 37.8768 15.5842 38 16 38C16.4158 38 16.8213 37.8768 17.16 37.6477L24.46 32.7061C26.7936 31.1226 28.6954 29.0322 30.0069 26.6089C31.3184 24.1857 32.0018 21.4997 32 18.7747V4.61532C32.001 4.33138 31.9351 4.05083 31.807 3.79429C31.6789 3.53775 31.492 3.31174 31.26 3.13286ZM28 18.7747C28.0015 20.8935 27.4706 22.9819 26.4513 24.8662C25.432 26.7505 23.9539 28.3763 22.14 29.6081L16 33.7704L9.86 29.6081C8.04608 28.3763 6.56798 26.7505 5.54871 24.8662C4.52944 22.9819 3.99847 20.8935 4.00001 18.7747V6.801C8.19286 7.14203 12.3921 6.21756 16 4.15918C19.6079 6.21756 23.8071 7.14203 28 6.801V18.7747ZM19.08 14.4224L13.7 19.554L11.92 17.8435C11.5434 17.4856 11.0326 17.2845 10.5 17.2845C9.9674 17.2845 9.45661 17.4856 9.08 17.8435C8.7034 18.2013 8.49182 18.6868 8.49182 19.1929C8.49182 19.699 8.7034 20.1844 9.08 20.5423L12.28 23.5833C12.4659 23.7614 12.6871 23.9028 12.9308 23.9993C13.1746 24.0958 13.436 24.1454 13.7 24.1454C13.964 24.1454 14.2254 24.0958 14.4692 23.9993C14.7129 23.9028 14.9341 23.7614 15.12 23.5833L22 17.1022C22.3766 16.7443 22.5882 16.2589 22.5882 15.7528C22.5882 15.2467 22.3766 14.7613 22 14.4034C21.6234 14.0455 21.1126 13.8444 20.58 13.8444C20.0474 13.8444 19.5366 14.0455 19.16 14.4034L19.08 14.4224Z" fill="#CE93D8"/>
</svg>
