<svg width="38" height="38" viewBox="0 0 38 38" fill="none" xmlns="http://www.w3.org/2000/svg">
<path d="M15.2 15.2C15.2 14.8242 15.0886 14.4569 14.8798 14.1444C14.671 13.832 14.3743 13.5884 14.0271 13.4446C13.6799 13.3008 13.2979 13.2632 12.9293 13.3365C12.5608 13.4098 12.2222 13.5908 11.9565 13.8565C11.6908 14.1222 11.5098 14.4608 11.4365 14.8293C11.3632 15.1979 11.4008 15.5799 11.5446 15.9271C11.6884 16.2743 11.932 16.571 12.2444 16.7798C12.5569 16.9886 12.9242 17.1 13.3 17.1C13.8039 17.1 14.2872 16.8998 14.6435 16.5435C14.9998 16.1872 15.2 15.7039 15.2 15.2ZM23.75 22.914C23.5343 22.7876 23.2957 22.705 23.048 22.671C22.8003 22.6369 22.5483 22.6521 22.3065 22.7157C22.0647 22.7792 21.8378 22.8898 21.6388 23.0413C21.4398 23.1927 21.2727 23.3819 21.147 23.598C20.9313 23.9772 20.619 24.2925 20.2419 24.5119C19.8648 24.7313 19.4363 24.8468 19 24.8468C18.5637 24.8468 18.1352 24.7313 17.7581 24.5119C17.381 24.2925 17.0687 23.9772 16.853 23.598C16.7273 23.3819 16.5602 23.1927 16.3612 23.0413C16.1622 22.8898 15.9353 22.7792 15.6935 22.7157C15.4517 22.6521 15.1997 22.6369 14.952 22.671C14.7043 22.705 14.4657 22.7876 14.25 22.914C13.8154 23.1646 13.4976 23.577 13.3659 24.0611C13.2342 24.5452 13.2993 25.0617 13.547 25.498C14.0981 26.4571 14.8924 27.2539 15.8498 27.808C16.8072 28.3621 17.8938 28.6539 19 28.6539C20.1062 28.6539 21.1928 28.3621 22.1502 27.808C23.1076 27.2539 23.9019 26.4571 24.453 25.498C24.7007 25.0617 24.7658 24.5452 24.6341 24.0611C24.5024 23.577 24.1846 23.1646 23.75 22.914ZM24.7 13.3C24.3242 13.3 23.9569 13.4114 23.6444 13.6202C23.332 13.829 23.0884 14.1257 22.9446 14.4729C22.8008 14.8201 22.7632 15.2021 22.8365 15.5707C22.9098 15.9392 23.0908 16.2778 23.3565 16.5435C23.6222 16.8092 23.9608 16.9902 24.3293 17.0635C24.6979 17.1368 25.0799 17.0992 25.4271 16.9554C25.7743 16.8116 26.071 16.568 26.2798 16.2556C26.4886 15.9431 26.6 15.5758 26.6 15.2C26.6 14.6961 26.3998 14.2128 26.0435 13.8565C25.6872 13.5002 25.2039 13.3 24.7 13.3ZM19 0C15.2422 0 11.5687 1.11433 8.44417 3.20208C5.31964 5.28982 2.88436 8.25722 1.4463 11.729C0.00823236 15.2008 -0.368031 19.0211 0.365088 22.7067C1.09821 26.3923 2.90778 29.7778 5.56498 32.435C8.22218 35.0922 11.6077 36.9018 15.2933 37.6349C18.9789 38.368 22.7992 37.9918 26.271 36.5537C29.7428 35.1156 32.7102 32.6804 34.7979 29.5558C36.8857 26.4313 38 22.7578 38 19C38 16.5049 37.5085 14.0342 36.5537 11.729C35.5989 9.42383 34.1993 7.32928 32.435 5.56497C30.6707 3.80066 28.5762 2.40113 26.271 1.44629C23.9658 0.491449 21.4951 0 19 0ZM19 34.2C15.4609 34.2153 12.0274 32.9951 9.2916 30.7499C6.55581 28.5047 4.68924 25.3752 4.01379 21.9011C3.33834 18.427 3.89634 14.8261 5.59157 11.7194C7.28681 8.61268 10.013 6.1949 13.3 4.883C13.2805 5.15498 13.2805 5.42802 13.3 5.7C13.3 7.21173 13.9005 8.66155 14.9695 9.73051C16.0385 10.7995 17.4883 11.4 19 11.4C19.5039 11.4 19.9872 11.1998 20.3435 10.8435C20.6998 10.4872 20.9 10.0039 20.9 9.5C20.9 8.99609 20.6998 8.51281 20.3435 8.1565C19.9872 7.80018 19.5039 7.6 19 7.6C18.4961 7.6 18.0128 7.39982 17.6565 7.0435C17.3002 6.68718 17.1 6.20391 17.1 5.7C17.1 5.19609 17.3002 4.71282 17.6565 4.3565C18.0128 4.00018 18.4961 3.8 19 3.8C23.0313 3.8 26.8975 5.40142 29.748 8.25198C32.5986 11.1025 34.2 14.9687 34.2 19C34.2 23.0313 32.5986 26.8975 29.748 29.748C26.8975 32.5986 23.0313 34.2 19 34.2Z" fill="#CE93D8"/>
</svg>
