<svg width="17" height="19" viewBox="0 0 17 19" fill="none" xmlns="http://www.w3.org/2000/svg">
<path d="M16.8838 7.20205C16.7954 7.04577 16.6602 6.91435 16.4932 6.82236C16.3261 6.73036 16.1338 6.68138 15.9374 6.68085H10.6206V0.995095C10.632 0.787265 10.5663 0.581865 10.4337 0.410599C10.3011 0.239333 10.1089 0.111724 9.88683 0.0474685C9.67333 -0.0151288 9.44307 -0.0158322 9.2291 0.045459C9.01512 0.10675 8.82844 0.226884 8.69586 0.388614L0.188912 10.8125C0.0823262 10.9498 0.0183252 11.1097 0.00338686 11.2761C-0.0115515 11.4425 0.0231031 11.6095 0.103843 11.7601C0.178195 11.9324 0.307359 12.0815 0.475479 12.1892C0.643599 12.297 0.84336 12.3586 1.05024 12.3666H6.36708V18.0524C6.36725 18.2522 6.43829 18.4469 6.57007 18.6086C6.70185 18.7702 6.88761 18.8907 7.1008 18.9526C7.20764 18.9821 7.31862 18.9981 7.43045 19C7.59823 19.0004 7.76374 18.9654 7.91344 18.8979C8.06314 18.8303 8.19278 18.7322 8.29178 18.6115L16.7987 8.18758C16.9133 8.04619 16.9819 7.87937 16.9969 7.70548C17.0119 7.53159 16.9727 7.35739 16.8838 7.20205ZM8.49382 15.1337V11.419C8.49382 11.1677 8.38178 10.9266 8.18236 10.7489C7.98294 10.5712 7.71247 10.4714 7.43045 10.4714H3.17698L8.49382 3.91378V7.62848C8.49382 7.87981 8.60585 8.12084 8.80527 8.29855C9.00469 8.47627 9.27516 8.57611 9.55719 8.57611H13.8107L8.49382 15.1337Z" fill="#CE93D8"/>
</svg>
