<svg width="17" height="21" viewBox="0 0 17 21" fill="none" xmlns="http://www.w3.org/2000/svg">
<path d="M5.16402 7.02019L5.1619 7.02193L5.15988 7.0239L5.16402 7.02019ZM14.5651 6.84311C14.4994 6.77945 14.4265 6.72375 14.3479 6.67715C14.2366 6.61132 14.1131 6.56914 13.985 6.5532C13.8568 6.53727 13.7268 6.54792 13.6029 6.5845C13.4791 6.62109 13.364 6.68282 13.2648 6.76589C13.1656 6.84896 13.0844 6.9516 13.0262 7.06747C12.7009 7.71179 12.2522 8.28519 11.7059 8.7548C11.7894 8.28164 11.8316 7.80204 11.8318 7.32149C11.8335 5.85958 11.4499 4.42331 10.7199 3.15891C9.98983 1.89452 8.93952 0.84716 7.67587 0.123479C7.53667 0.044158 7.3797 0.00168621 7.21969 4.9185e-05C7.05968 -0.00158784 6.90189 0.0376635 6.76111 0.11412C6.62033 0.190577 6.50118 0.301732 6.41484 0.437156C6.3285 0.57258 6.2778 0.727833 6.26751 0.888346C6.21466 1.7885 5.98055 2.6685 5.57938 3.47502C5.1782 4.28154 4.61831 4.9978 3.93363 5.5804L3.71597 5.7584C3 6.24266 2.36626 6.83962 1.83908 7.52639C1.0196 8.56413 0.451921 9.77953 0.181066 11.0762C-0.0897889 12.3729 -0.0563731 13.7151 0.278664 14.9965C0.6137 16.278 1.24114 17.4633 2.11123 18.4585C2.98132 19.4538 4.07013 20.2316 5.2913 20.7302C5.43469 20.7891 5.59029 20.8116 5.74437 20.7958C5.89846 20.7799 6.0463 20.7262 6.17486 20.6394C6.30341 20.5525 6.40873 20.4352 6.48152 20.2978C6.55431 20.1603 6.59233 20.007 6.59223 19.8513C6.59156 19.7506 6.5757 19.6506 6.5452 19.5546C6.3339 18.7563 6.27306 17.9252 6.3658 17.1043C7.25947 18.7986 8.69398 20.1417 10.4387 20.9175C10.6517 21.0133 10.8924 21.0261 11.1143 20.9536C12.4928 20.5064 13.7346 19.7123 14.7217 18.6468C15.7089 17.5812 16.4086 16.2796 16.7544 14.8657C17.1002 13.4518 17.0805 11.9725 16.6974 10.5683C16.3142 9.16415 15.5802 7.8818 14.5651 6.84311ZM10.8773 19.0243C10.054 18.6049 9.32777 18.0161 8.74579 17.296C8.16381 16.576 7.73911 15.7408 7.49931 14.845C7.42607 14.5433 7.36941 14.2378 7.3296 13.9299C7.30262 13.7338 7.21536 13.5511 7.08001 13.4073C6.94465 13.2635 6.76798 13.1659 6.5747 13.128C6.51515 13.1161 6.4546 13.1102 6.3939 13.1103C6.22791 13.1103 6.06483 13.1542 5.92112 13.2377C5.77741 13.3212 5.65815 13.4413 5.57535 13.586C4.79172 14.9446 4.39763 16.4948 4.43676 18.0648C3.74755 17.5261 3.17154 16.8553 2.74213 16.0913C2.31272 15.3272 2.03844 14.4851 1.93519 13.6137C1.83194 12.7422 1.90178 11.8589 2.14066 11.0148C2.37953 10.1707 2.78269 9.38272 3.32677 8.69642C3.73988 8.15703 4.23824 7.68943 4.80199 7.31226C4.8264 7.29642 4.84981 7.27908 4.87209 7.26034C4.87209 7.26034 5.15229 7.02729 5.16187 7.02196C6.50741 5.87795 7.46443 4.34052 7.89956 2.62389C8.9286 3.58011 9.61475 4.8511 9.85149 6.23952C10.0882 7.62793 9.86229 9.05606 9.20877 10.3022C9.12243 10.4684 9.08701 10.6567 9.10699 10.8432C9.12696 11.0297 9.20142 11.2061 9.321 11.35C9.44057 11.494 9.59988 11.5992 9.77885 11.6523C9.95782 11.7054 10.1484 11.704 10.3266 11.6484C11.7733 11.1925 13.0463 10.3021 13.9743 9.09696C14.5321 9.92508 14.8967 10.869 15.0411 11.8585C15.1854 12.848 15.1058 13.8574 14.8081 14.8116C14.5104 15.7659 14.0023 16.6403 13.3217 17.3697C12.6411 18.0991 11.8055 18.6647 10.8772 19.0244L10.8773 19.0243Z" fill="#CE93D8"/>
</svg>
