<svg width="64" height="69" viewBox="0 0 64 69" fill="none" xmlns="http://www.w3.org/2000/svg">
<path d="M51.8127 0.0333403C50.9032 0.0333403 50.0273 0.0333403 49.1515 0.0333403C48.2757 0.0333403 47.939 0.300002 47.6359 1.2C46.1538 6.1 44.6377 11.2 43.1556 15.9667C43.0527 16.144 42.9885 16.3406 42.9669 16.544C42.9453 16.7474 42.9667 16.9529 43.0302 17.1476C43.0936 17.3422 43.1977 17.5215 43.3353 17.6741C43.4729 17.8266 43.6413 17.949 43.8295 18.0333L49.455 22.1333C49.7714 22.4449 50.0637 22.7791 50.3303 23.1333C51.8798 24.9333 52.9579 26.4667 53.0927 26.6667C54.2716 28.5 52.5873 35.3667 44.941 44.4667C43.661 45.9667 30.4568 61.3667 24.7303 57.8C23.2037 56.5293 21.9544 54.9643 21.059 53.2C19.9138 51.0667 18.5327 49.0667 17.2864 47C17.2217 46.8377 17.123 46.691 16.9971 46.569C16.8707 46.4473 16.7198 46.3533 16.5544 46.2937C16.3891 46.2337 16.2125 46.2093 16.0367 46.222C15.8609 46.2343 15.6898 46.2837 15.5348 46.3667L1.82534 51.3333C1.5525 51.407 1.312 51.568 1.14122 51.791C0.970439 52.014 0.87949 52.287 0.882184 52.5667C0.780795 55.146 0.847827 57.7293 1.08395 60.3C1.34501 62.6383 2.45591 64.803 4.20951 66.3913C5.96311 67.9793 8.24016 68.883 10.6169 68.9333C22.4101 68.9317 33.8117 64.745 42.7514 57.1333C52.939 48.6473 59.9108 36.988 62.524 24.0667C63.4823 19.6855 63.968 15.216 63.9726 10.7333C64.0735 9.3792 63.8948 8.0189 63.4471 6.73537C62.9995 5.45187 62.2925 4.272 61.369 3.26772C60.4455 2.26344 59.325 1.45579 58.0758 0.893987C56.8267 0.332187 55.4748 0.0280052 54.103 0L51.8127 0.0333403Z" fill="#BA85C3"/>
</svg>
