<svg width="65" height="65" viewBox="0 0 65 65" fill="none" xmlns="http://www.w3.org/2000/svg">
<mask id="mask0_287_4973" style="mask-type:alpha" maskUnits="userSpaceOnUse" x="0" y="0" width="65" height="65">
<rect width="65" height="65" rx="32.5" fill="#CE93D8"/>
</mask>
<g mask="url(#mask0_287_4973)">
<rect width="65" height="65" rx="32.5" fill="#CE93D8"/>
<path d="M42.7119 39.4506C45.4213 37.3307 47.3989 34.4236 48.3696 31.1338C49.3403 27.844 49.2558 24.3351 48.1279 21.0953C47 17.8554 44.8848 15.0458 42.0765 13.0572C39.2682 11.0686 35.9064 10 32.459 10C29.0116 10 25.6499 11.0686 22.8416 13.0572C20.0333 15.0458 17.918 17.8554 16.7901 21.0953C15.6622 24.3351 15.5777 27.844 16.5484 31.1338C17.5191 34.4236 19.4967 37.3307 22.2061 39.4506C17.5635 41.3004 13.5127 44.3685 10.4855 48.3278C7.45829 52.2871 5.56818 56.9891 5.01667 61.9327C4.97675 62.2936 5.0087 62.6588 5.1107 63.0075C5.2127 63.3561 5.38275 63.6814 5.61115 63.9646C6.07241 64.5368 6.74331 64.9032 7.47626 64.9834C8.2092 65.0636 8.94416 64.8509 9.51944 64.3922C10.0947 63.9335 10.4632 63.2662 10.5438 62.5373C11.1507 57.1647 13.7266 52.2028 17.7795 48.5995C21.8324 44.9963 27.078 43.0044 32.5143 43.0044C37.9505 43.0044 43.1962 44.9963 47.2491 48.5995C51.302 52.2028 53.8779 57.1647 54.4847 62.5373C54.5599 63.2127 54.8839 63.8364 55.3942 64.2881C55.9046 64.7398 56.5651 64.9875 57.2483 64.9834H57.5523C58.2767 64.9005 58.9389 64.5362 59.3944 63.9699C59.8499 63.4036 60.062 62.6812 59.9843 61.9601C59.4301 57.0026 57.5299 52.2884 54.4871 48.3231C51.4443 44.3577 47.3738 41.2906 42.7119 39.4506ZM32.459 37.4993C30.2727 37.4993 28.1354 36.8545 26.3176 35.6465C24.4997 34.4385 23.0828 32.7215 22.2462 30.7127C21.4095 28.7039 21.1906 26.4934 21.6171 24.3608C22.0436 22.2283 23.0965 20.2694 24.6424 18.7319C26.1884 17.1944 28.1581 16.1474 30.3024 15.7232C32.4467 15.299 34.6694 15.5167 36.6893 16.3488C38.7092 17.1809 40.4357 18.5899 41.6503 20.3978C42.865 22.2057 43.5133 24.3313 43.5133 26.5056C43.5133 29.4213 42.3487 32.2176 40.2756 34.2793C38.2025 36.341 35.3908 37.4993 32.459 37.4993Z" fill="#F3E5F5"/>
</g>
</svg>
