<?xml version="1.0" encoding="UTF-8"?><!DOCTYPE svg PUBLIC "-//W3C//DTD SVG 1.1//EN" "http://www.w3.org/Graphics/SVG/1.1/DTD/svg11.dtd"><svg xmlns="http://www.w3.org/2000/svg" xmlns:xlink="http://www.w3.org/1999/xlink"><symbol id="map-icon" viewBox="0 0 40 51">
<path fill-rule="evenodd" clip-rule="evenodd" d="M5.85786 5.975C9.60859 2.14927 14.6957 0 20 0C25.3043 0 30.3914 2.14927 34.1421 5.975C37.8929 9.80073 40 14.9895 40 20.3999C40 34.1699 22.5 49.7248 21.625 50.3878C21.1722 50.7829 20.5959 51 20 51C19.4041 51 18.8278 50.7829 18.375 50.3878L18.3708 50.3842C17.5625 49.6696 0 34.1455 0 20.3999C0 14.9895 2.10714 9.80073 5.85786 5.975ZM20 10.2002C18.0222 10.2002 16.0888 10.7984 14.4443 11.9192C12.7998 13.04 11.5181 14.633 10.7612 16.4968C10.0043 18.3606 9.8063 20.4115 10.1922 22.3901C10.578 24.3687 11.5304 26.1861 12.9289 27.6126C14.3275 29.0391 16.1093 30.0106 18.0491 30.4041C19.9889 30.7977 21.9996 30.5957 23.8268 29.8237C25.6541 29.0517 27.2159 27.7443 28.3147 26.067C29.4135 24.3896 30 22.4175 30 20.4002C30 17.695 28.9464 15.1006 27.0711 13.1877C25.1957 11.2748 22.6522 10.2002 20 10.2002Z" fill="#AB47BC"/>
</symbol><symbol id="multi" viewBox="0 0 20 20">
<path d="M17 7L10 14L3 7" stroke="#513556" stroke-width="2" stroke-linecap="round" stroke-linejoin="round"/>
</symbol><symbol id="phone-icon-hover" viewBox="0 0 64 69">
<path d="M51.8127 0.0333403C50.9032 0.0333403 50.0273 0.0333403 49.1515 0.0333403C48.2757 0.0333403 47.939 0.300002 47.6359 1.2C46.1538 6.1 44.6377 11.2 43.1556 15.9667C43.0527 16.144 42.9885 16.3406 42.9669 16.544C42.9453 16.7474 42.9667 16.9529 43.0302 17.1476C43.0936 17.3422 43.1977 17.5215 43.3353 17.6741C43.4729 17.8266 43.6413 17.949 43.8295 18.0333L49.455 22.1333C49.7714 22.4449 50.0637 22.7791 50.3303 23.1333C51.8798 24.9333 52.9579 26.4667 53.0927 26.6667C54.2716 28.5 52.5873 35.3667 44.941 44.4667C43.661 45.9667 30.4568 61.3667 24.7303 57.8C23.2037 56.5293 21.9544 54.9643 21.059 53.2C19.9138 51.0667 18.5327 49.0667 17.2864 47C17.2217 46.8377 17.123 46.691 16.9971 46.569C16.8707 46.4473 16.7198 46.3533 16.5544 46.2937C16.3891 46.2337 16.2125 46.2093 16.0367 46.222C15.8609 46.2343 15.6898 46.2837 15.5348 46.3667L1.82534 51.3333C1.5525 51.407 1.312 51.568 1.14122 51.791C0.970439 52.014 0.87949 52.287 0.882184 52.5667C0.780795 55.146 0.847827 57.7293 1.08395 60.3C1.34501 62.6383 2.45591 64.803 4.20951 66.3913C5.96311 67.9793 8.24016 68.883 10.6169 68.9333C22.4101 68.9317 33.8117 64.745 42.7514 57.1333C52.939 48.6473 59.9108 36.988 62.524 24.0667C63.4823 19.6855 63.968 15.216 63.9726 10.7333C64.0735 9.3792 63.8948 8.0189 63.4471 6.73537C62.9995 5.45187 62.2925 4.272 61.369 3.26772C60.4455 2.26344 59.325 1.45579 58.0758 0.893987C56.8267 0.332187 55.4748 0.0280052 54.103 0L51.8127 0.0333403Z" fill="#BA85C3"/>
</symbol><symbol id="phone-icon" viewBox="0 0 64 70">
<path d="M51.8127 0.0333403C50.9032 0.0333403 50.0273 0.0333403 49.1515 0.0333403C48.2757 0.0333403 47.939 0.300002 47.6359 1.2C46.1538 6.1 44.6377 11.2 43.1556 15.9667C43.0527 16.144 42.9885 16.3406 42.9669 16.544C42.9453 16.7474 42.9667 16.9529 43.0302 17.1476C43.0936 17.3422 43.1977 17.5215 43.3353 17.6741C43.4729 17.8266 43.6413 17.949 43.8295 18.0333L49.455 22.1333C49.7714 22.4449 50.0637 22.7791 50.3303 23.1333C51.8798 24.9333 52.9579 26.4667 53.0927 26.6667C54.2716 28.5 52.5873 35.3667 44.941 44.4667C43.661 45.9667 30.4568 61.3667 24.7303 57.8C23.2037 56.5293 21.9544 54.9643 21.059 53.2C19.9138 51.0667 18.5327 49.0667 17.2864 47C17.2217 46.8377 17.123 46.691 16.9971 46.569C16.8707 46.4473 16.7198 46.3533 16.5544 46.2937C16.3891 46.2337 16.2125 46.2093 16.0367 46.222C15.8609 46.2343 15.6898 46.2837 15.5348 46.3667L1.82535 51.3333C1.55251 51.407 1.31201 51.568 1.14123 51.791C0.970448 52.014 0.879499 52.287 0.882193 52.5667C0.780804 55.146 0.847836 57.7293 1.08396 60.3C1.34502 62.6383 2.45592 64.803 4.20952 66.3913C5.96312 67.9793 8.24017 68.883 10.6169 68.9333C22.4101 68.9317 33.8117 64.745 42.7514 57.1333C52.939 48.6473 59.9108 36.988 62.524 24.0667C63.4823 19.6855 63.968 15.216 63.9726 10.7333C64.0735 9.3792 63.8948 8.0189 63.4471 6.73537C62.9995 5.45187 62.2925 4.272 61.369 3.26772C60.4455 2.26344 59.325 1.45579 58.0758 0.893987C56.8267 0.332187 55.4748 0.0280052 54.103 0L51.8127 0.0333403Z" fill="#CE93D8"/>
</symbol><symbol id="review" viewBox="0 0 65 65">
<mask id="mask0_287_4973" style="mask-type:alpha" maskUnits="userSpaceOnUse" x="0" y="0" width="65" height="65">
<rect width="65" height="65" rx="32.5" fill="#CE93D8"/>
</mask>
<g mask="url(#mask0_287_4973)">
<rect width="65" height="65" rx="32.5" fill="#CE93D8"/>
<path d="M42.7119 39.4506C45.4213 37.3307 47.3989 34.4236 48.3696 31.1338C49.3403 27.844 49.2558 24.3351 48.1279 21.0953C47 17.8554 44.8848 15.0458 42.0765 13.0572C39.2682 11.0686 35.9064 10 32.459 10C29.0116 10 25.6499 11.0686 22.8416 13.0572C20.0333 15.0458 17.918 17.8554 16.7901 21.0953C15.6622 24.3351 15.5777 27.844 16.5484 31.1338C17.5191 34.4236 19.4967 37.3307 22.2061 39.4506C17.5635 41.3004 13.5127 44.3685 10.4855 48.3278C7.45829 52.2871 5.56818 56.9891 5.01667 61.9327C4.97675 62.2936 5.0087 62.6588 5.1107 63.0075C5.2127 63.3561 5.38275 63.6814 5.61115 63.9646C6.07241 64.5368 6.74331 64.9032 7.47626 64.9834C8.2092 65.0636 8.94416 64.8509 9.51944 64.3922C10.0947 63.9335 10.4632 63.2662 10.5438 62.5373C11.1507 57.1647 13.7266 52.2028 17.7795 48.5995C21.8324 44.9963 27.078 43.0044 32.5143 43.0044C37.9505 43.0044 43.1962 44.9963 47.2491 48.5995C51.302 52.2028 53.8779 57.1647 54.4847 62.5373C54.5599 63.2127 54.8839 63.8364 55.3942 64.2881C55.9046 64.7398 56.5651 64.9875 57.2483 64.9834H57.5523C58.2767 64.9005 58.9389 64.5362 59.3944 63.9699C59.8499 63.4036 60.062 62.6812 59.9843 61.9601C59.4301 57.0026 57.5299 52.2884 54.4871 48.3231C51.4443 44.3577 47.3738 41.2906 42.7119 39.4506ZM32.459 37.4993C30.2727 37.4993 28.1354 36.8545 26.3176 35.6465C24.4997 34.4385 23.0828 32.7215 22.2462 30.7127C21.4095 28.7039 21.1906 26.4934 21.6171 24.3608C22.0436 22.2283 23.0965 20.2694 24.6424 18.7319C26.1884 17.1944 28.1581 16.1474 30.3024 15.7232C32.4467 15.299 34.6694 15.5167 36.6893 16.3488C38.7092 17.1809 40.4357 18.5899 41.6503 20.3978C42.865 22.2057 43.5133 24.3313 43.5133 26.5056C43.5133 29.4213 42.3487 32.2176 40.2756 34.2793C38.2025 36.341 35.3908 37.4993 32.459 37.4993Z" fill="#F3E5F5"/>
</g>
</symbol><symbol id="instagram" viewBox="0 0 30 30">
<path d="M15 11.28C14.2643 11.28 13.545 11.4982 12.9333 11.9069C12.3215 12.3157 11.8447 12.8967 11.5632 13.5764C11.2816 14.2562 11.2079 15.0041 11.3515 15.7257C11.495 16.4473 11.8493 17.1102 12.3696 17.6304C12.8898 18.1507 13.5527 18.505 14.2743 18.6485C14.9959 18.7921 15.7438 18.7184 16.4236 18.4368C17.1033 18.1553 17.6843 17.6785 18.0931 17.0667C18.5018 16.455 18.72 15.7357 18.72 15C18.72 14.5115 18.6238 14.0277 18.4368 13.5764C18.2499 13.1251 17.9759 12.715 17.6304 12.3696C17.285 12.0241 16.8749 11.7501 16.4236 11.5632C15.9723 11.3762 15.4885 11.28 15 11.28ZM29.895 7.605C29.8871 6.44664 29.6738 5.29886 29.265 4.215C28.9639 3.42189 28.4981 2.70164 27.8982 2.10178C27.2984 1.50192 26.5781 1.03608 25.785 0.735C24.7011 0.326196 23.5534 0.112891 22.395 0.105C20.46 -1.00583e-07 19.89 0 15 0C10.11 0 9.54 -1.00583e-07 7.605 0.105C6.44664 0.112891 5.29886 0.326196 4.215 0.735C3.42189 1.03608 2.70164 1.50192 2.10178 2.10178C1.50192 2.70164 1.03608 3.42189 0.735 4.215C0.326196 5.29886 0.112891 6.44664 0.105 7.605C-1.00583e-07 9.54 0 10.11 0 15C0 19.89 -1.00583e-07 20.46 0.105 22.395C0.121146 23.5574 0.334161 24.7087 0.735 25.8C1.03474 26.5895 1.50019 27.3056 2.1 27.9C2.69729 28.5035 3.41908 28.9693 4.215 29.265C5.29886 29.6738 6.44664 29.8871 7.605 29.895C9.54 30 10.11 30 15 30C19.89 30 20.46 30 22.395 29.895C23.5534 29.8871 24.7011 29.6738 25.785 29.265C26.5809 28.9693 27.3027 28.5035 27.9 27.9C28.4998 27.3056 28.9653 26.5895 29.265 25.8C29.6734 24.7108 29.8867 23.5582 29.895 22.395C30 20.46 30 19.89 30 15C30 10.11 30 9.54 29.895 7.605ZM26.085 19.605C26.0369 20.5307 25.8393 21.4424 25.5 22.305C25.2088 23.0245 24.7759 23.6782 24.227 24.227C23.6782 24.7759 23.0245 25.2088 22.305 25.5C21.4343 25.8204 20.5174 25.9977 19.59 26.025C18.405 26.025 18.09 26.025 15 26.025C11.91 26.025 11.595 26.025 10.41 26.025C9.4826 25.9977 8.56573 25.8204 7.695 25.5C6.95115 25.2236 6.27942 24.7826 5.73 24.21C5.1865 23.6719 4.76677 23.0218 4.5 22.305C4.17834 21.4352 4.00591 20.5173 3.99 19.59C3.99 18.405 3.99 18.09 3.99 15C3.99 11.91 3.99 11.595 3.99 10.41C4.00591 9.48274 4.17834 8.56483 4.5 7.695C4.77642 6.95115 5.21741 6.27942 5.79 5.73C6.3305 5.18944 6.9799 4.77014 7.695 4.5C8.56573 4.17961 9.4826 4.00231 10.41 3.975C11.595 3.975 11.91 3.975 15 3.975C18.09 3.975 18.405 3.975 19.59 3.975C20.5174 4.00231 21.4343 4.17961 22.305 4.5C23.0488 4.77642 23.7206 5.21741 24.27 5.79C24.8135 6.32812 25.2332 6.9782 25.5 7.695C25.8204 8.56573 25.9977 9.4826 26.025 10.41C26.025 11.595 26.025 11.91 26.025 15C26.025 18.09 26.13 18.405 26.085 19.59V19.605ZM23.685 8.445C23.5064 7.96048 23.2248 7.52046 22.8597 7.15532C22.4945 6.79018 22.0545 6.50859 21.57 6.33C20.9047 6.09939 20.204 5.98769 19.5 6C18.33 6 18 6 15 6C12 6 11.67 6 10.5 6C9.7924 6.00692 9.0916 6.13895 8.43 6.39C7.95289 6.56048 7.51754 6.83057 7.15288 7.1823C6.78821 7.53403 6.50259 7.95936 6.315 8.43C6.09717 9.09805 5.99074 9.79739 6 10.5C6 11.67 6 12 6 15C6 18 6 18.33 6 19.5C6.01487 20.2068 6.14665 20.9062 6.39 21.57C6.5686 22.0545 6.85018 22.4945 7.21532 22.8597C7.58046 23.2248 8.02048 23.5064 8.505 23.685C9.145 23.9204 9.81848 24.052 10.5 24.075C11.67 24.075 12 24.075 15 24.075C18 24.075 18.33 24.075 19.5 24.075C20.2076 24.0681 20.9084 23.9361 21.57 23.685C22.0545 23.5064 22.4945 23.2248 22.8597 22.8597C23.2248 22.4945 23.5064 22.0545 23.685 21.57C23.9361 20.9084 24.0681 20.2076 24.075 19.5C24.075 18.33 24.075 18 24.075 15C24.075 12 24.075 11.67 24.075 10.5C24.0754 9.7917 23.9432 9.08958 23.685 8.43V8.445ZM15 20.73C14.2482 20.73 13.5038 20.5817 12.8095 20.2935C12.1151 20.0054 11.4845 19.5831 10.9536 19.0508C10.4227 18.5185 10.002 17.8868 9.71572 17.1916C9.42939 16.4965 9.28303 15.7518 9.285 15C9.285 13.8661 9.62144 12.7576 10.2517 11.815C10.882 10.8724 11.7778 10.138 12.8257 9.70475C13.8736 9.2715 15.0265 9.15891 16.1384 9.38122C17.2503 9.60353 18.2713 10.1508 19.072 10.9536C19.8728 11.7565 20.4173 12.7789 20.6367 13.8914C20.8561 15.0039 20.7405 16.1564 20.3045 17.2032C19.8685 18.2499 19.1318 19.1438 18.1875 19.7716C17.2432 20.3994 16.1339 20.733 15 20.73ZM21 10.395C20.6684 10.3599 20.3615 10.2033 20.1385 9.95546C19.9155 9.70758 19.7921 9.38594 19.7921 9.0525C19.7921 8.71906 19.9155 8.39742 20.1385 8.14954C20.3615 7.90167 20.6684 7.7451 21 7.71C21.3316 7.7451 21.6385 7.90167 21.8615 8.14954C22.0845 8.39742 22.2079 8.71906 22.2079 9.0525C22.2079 9.38594 22.0845 9.70758 21.8615 9.95546C21.6385 10.2033 21.3316 10.3599 21 10.395Z" fill="currentColor"/>
</symbol><symbol id="vk" viewBox="0 0 25 25">
<path d="M16.3412 0H8.67188C1.66664 0 0 1.66664 0 8.65882V16.3281C0 23.3333 1.65368 25 8.65882 25H16.3281C23.3334 25 25 23.3463 25 16.3411V8.67188C25 1.66664 23.3463 0 16.3412 0ZM20.1823 17.8385H18.3594C17.6693 17.8385 17.4609 17.2786 16.224 16.0416C15.1432 15 14.6875 14.8698 14.4141 14.8698C14.0365 14.8698 13.9323 14.9739 13.9323 15.4948V17.1354C13.9323 17.5781 13.7891 17.8385 12.6302 17.8385C11.5057 17.763 10.4152 17.4213 9.4486 16.8418C8.48196 16.2623 7.66682 15.4614 7.07031 14.5052C5.6542 12.7425 4.66888 10.6738 4.19274 8.46351C4.19274 8.19007 4.29688 7.94266 4.81774 7.94266H6.64062C7.10938 7.94266 7.27868 8.15101 7.46094 8.63281C8.34632 11.2369 9.8568 13.5026 10.4688 13.5026C10.7031 13.5026 10.8073 13.3984 10.8073 12.8125V10.1302C10.7291 8.90625 10.0781 8.80204 10.0781 8.35938C10.0867 8.24259 10.1404 8.13374 10.228 8.05593C10.3155 7.97813 10.4299 7.9375 10.5469 7.94266H13.4115C13.8021 7.94266 13.9323 8.13797 13.9323 8.60672V12.2266C13.9323 12.6172 14.1016 12.7473 14.2188 12.7473C14.4531 12.7473 14.6354 12.6172 15.0651 12.1875C15.9884 11.0615 16.7429 9.80698 17.3047 8.46351C17.362 8.30186 17.4707 8.16342 17.6142 8.06937C17.7576 7.97531 17.9279 7.93081 18.099 7.94266H19.9219C20.4688 7.94266 20.5859 8.2161 20.4688 8.60672C19.8055 10.0921 18.9848 11.5021 18.0209 12.8125C17.8256 13.1119 17.7474 13.2682 18.0209 13.6198C18.2031 13.8932 18.8412 14.427 19.2709 14.9348C19.8958 15.5583 20.4148 16.2796 20.8073 17.0703C20.9635 17.5781 20.7031 17.8385 20.1823 17.8385Z" fill="currentColor"/>
</symbol><symbol id="wtsapp" viewBox="0 0 25 25">
<path d="M25 5.6875C24.986 5.14822 24.9442 4.61001 24.875 4.075C24.7817 3.60641 24.6261 3.15239 24.4125 2.725C24.1891 2.26138 23.889 1.83878 23.525 1.475C23.1576 1.11526 22.7358 0.815739 22.275 0.5875C21.847 0.378055 21.393 0.226717 20.925 0.1375C20.3951 0.0581242 19.8607 0.0122001 19.325 0H5.6875C5.14822 0.0140455 4.61001 0.055767 4.075 0.125C3.60641 0.218335 3.15239 0.373879 2.725 0.5875C2.26138 0.810921 1.83878 1.11097 1.475 1.475C1.11526 1.84239 0.815739 2.26424 0.5875 2.725C0.378055 3.15295 0.226717 3.60697 0.1375 4.075C0.0581242 4.60492 0.0122001 5.13931 0 5.675C0 5.9125 0 6.25 0 6.35V18.65C0 18.7875 0 19.0875 0 19.3125C0.0140455 19.8518 0.055767 20.39 0.125 20.925C0.218335 21.3936 0.373879 21.8476 0.5875 22.275C0.810921 22.7386 1.11097 23.1612 1.475 23.525C1.84239 23.8847 2.26424 24.1843 2.725 24.4125C3.15295 24.6219 3.60697 24.7733 4.075 24.8625C4.60492 24.9419 5.13931 24.9878 5.675 25H19.3125C19.8518 24.986 20.39 24.9442 20.925 24.875C21.3936 24.7817 21.8476 24.6261 22.275 24.4125C22.7386 24.1891 23.1612 23.889 23.525 23.525C23.8847 23.1576 24.1843 22.7358 24.4125 22.275C24.6219 21.847 24.7733 21.393 24.8625 20.925C24.9419 20.3951 24.9878 19.8607 25 19.325C25 19.0875 25 18.7875 25 18.65V6.35C25 6.25 25 5.9125 25 5.6875ZM12.7875 21.25C11.2863 21.2426 9.81142 20.8556 8.5 20.125L3.75 21.375L5 16.725C4.19389 15.3706 3.76248 13.8261 3.75 12.25C3.75498 10.4787 4.284 8.74839 5.27045 7.27713C6.2569 5.80587 7.65665 4.65941 9.29341 3.98214C10.9302 3.30488 12.7307 3.12709 14.4684 3.47117C16.206 3.81526 17.8029 4.66583 19.058 5.91575C20.3132 7.16568 21.1704 8.75907 21.5217 10.4952C21.873 12.2314 21.7027 14.0327 21.0322 15.6723C20.3618 17.3118 19.2211 18.7163 17.754 19.7089C16.2869 20.7014 14.5588 21.2377 12.7875 21.25ZM12.7875 4.8375C11.4623 4.85266 10.1647 5.21873 9.02695 5.89842C7.88918 6.57811 6.95185 7.54716 6.31037 8.7069C5.66889 9.86664 5.34619 11.1756 5.37511 12.5007C5.40402 13.8257 5.78354 15.1194 6.475 16.25L6.65 16.5375L5.9 19.275L8.75 18.5L9.025 18.6625C10.162 19.3322 11.4555 19.6901 12.775 19.7C14.7641 19.7 16.6718 18.9098 18.0783 17.5033C19.4848 16.0968 20.275 14.1891 20.275 12.2C20.275 10.2109 19.4848 8.30322 18.0783 6.8967C16.6718 5.49018 14.7641 4.7 12.775 4.7L12.7875 4.8375ZM17.1625 15.4875C16.9988 15.7606 16.7796 15.9963 16.519 16.1793C16.2585 16.3623 15.9624 16.4886 15.65 16.55C15.1832 16.6353 14.7026 16.6053 14.25 16.4625C13.8242 16.3294 13.4068 16.1708 13 15.9875C11.4547 15.2121 10.1368 14.0492 9.175 12.6125C8.65235 11.9468 8.33523 11.1432 8.2625 10.3C8.25506 9.94974 8.32132 9.60182 8.45698 9.27881C8.59264 8.9558 8.79469 8.66491 9.05 8.425C9.1252 8.33973 9.21747 8.2712 9.32082 8.22383C9.42417 8.17646 9.53632 8.15131 9.65 8.15H10C10.1375 8.15 10.325 8.15 10.5 8.5375C10.675 8.925 11.1375 10.0875 11.2 10.2C11.2307 10.26 11.2467 10.3264 11.2467 10.3937C11.2467 10.4611 11.2307 10.5275 11.2 10.5875C11.1447 10.7233 11.0688 10.8498 10.975 10.9625C10.8625 11.1 10.7375 11.2625 10.6375 11.3625C10.5375 11.4625 10.4125 11.5875 10.5375 11.8125C10.8776 12.3865 11.2986 12.9085 11.7875 13.3625C12.3199 13.8329 12.9286 14.2092 13.5875 14.475C13.8125 14.5875 13.95 14.575 14.075 14.475C14.2 14.375 14.6375 13.825 14.7875 13.6C14.9375 13.375 15.0875 13.4125 15.2875 13.4875C15.4875 13.5625 16.6 14.1 16.825 14.2125C17.05 14.325 17.1875 14.375 17.25 14.475C17.3042 14.8022 17.2741 15.1377 17.1625 15.45V15.4875Z" fill="currentColor"/>
</symbol><symbol id="certificate" viewBox="0 0 19 19">
<path d="M18.05 1.9H15.2V0.95C15.2 0.698044 15.0999 0.456408 14.9218 0.278249C14.7436 0.100089 14.502 0 14.25 0H4.75C4.49804 0 4.25641 0.100089 4.07825 0.278249C3.90009 0.456408 3.8 0.698044 3.8 0.95V1.9H0.95C0.698044 1.9 0.456408 2.00009 0.278249 2.17825C0.100089 2.35641 0 2.59804 0 2.85V5.7C0 6.70782 0.400356 7.67437 1.11299 8.38701C1.82563 9.09964 2.79218 9.5 3.8 9.5H5.263C6.12231 10.4587 7.28086 11.0982 8.55 11.3145V13.3H7.6C6.84413 13.3 6.11922 13.6003 5.58475 14.1347C5.05027 14.6692 4.75 15.3941 4.75 16.15V18.05C4.75 18.302 4.85009 18.5436 5.02825 18.7218C5.20641 18.8999 5.44804 19 5.7 19H13.3C13.552 19 13.7936 18.8999 13.9718 18.7218C14.1499 18.5436 14.25 18.302 14.25 18.05V16.15C14.25 15.3941 13.9497 14.6692 13.4153 14.1347C12.8808 13.6003 12.1559 13.3 11.4 13.3H10.45V11.3145C11.7191 11.0982 12.8777 10.4587 13.737 9.5H15.2C16.2078 9.5 17.1744 9.09964 17.887 8.38701C18.5996 7.67437 19 6.70782 19 5.7V2.85C19 2.59804 18.8999 2.35641 18.7218 2.17825C18.5436 2.00009 18.302 1.9 18.05 1.9ZM3.8 7.6C3.29609 7.6 2.81282 7.39982 2.4565 7.0435C2.10018 6.68718 1.9 6.20391 1.9 5.7V3.8H3.8V5.7C3.80209 6.34762 3.91453 6.99015 4.1325 7.6H3.8ZM11.4 15.2C11.652 15.2 11.8936 15.3001 12.0718 15.4782C12.2499 15.6564 12.35 15.898 12.35 16.15V17.1H6.65V16.15C6.65 15.898 6.75009 15.6564 6.92825 15.4782C7.10641 15.3001 7.34804 15.2 7.6 15.2H11.4ZM13.3 5.7C13.3 6.70782 12.8996 7.67437 12.187 8.38701C11.4744 9.09964 10.5078 9.5 9.5 9.5C8.49218 9.5 7.52563 9.09964 6.81299 8.38701C6.10036 7.67437 5.7 6.70782 5.7 5.7V1.9H13.3V5.7ZM17.1 5.7C17.1 6.20391 16.8998 6.68718 16.5435 7.0435C16.1872 7.39982 15.7039 7.6 15.2 7.6H14.8675C15.0855 6.99015 15.1979 6.34762 15.2 5.7V3.8H17.1V5.7Z" fill="#CE93D8"/>
</symbol><symbol id="group" viewBox="0 0 15 12">
<path d="M7.71502 6.15529C8.07932 5.82927 8.37152 5.42604 8.57178 4.97296C8.77205 4.51988 8.87569 4.02756 8.87569 3.52941C8.87569 2.59335 8.51603 1.69563 7.87583 1.03374C7.23563 0.371848 6.36734 1.2629e-07 5.46196 1.2629e-07C4.55659 1.2629e-07 3.68829 0.371848 3.04809 1.03374C2.4079 1.69563 2.04824 2.59335 2.04824 3.52941C2.04823 4.02756 2.15188 4.51988 2.35214 4.97296C2.55241 5.42604 2.84461 5.82927 3.2089 6.15529C2.25315 6.60274 1.44228 7.32531 0.873218 8.23662C0.30416 9.14792 0.0010049 10.2094 0 11.2941C0 11.4813 0.0719319 11.6609 0.199971 11.7933C0.328011 11.9256 0.50167 12 0.682745 12C0.863821 12 1.03748 11.9256 1.16552 11.7933C1.29356 11.6609 1.36549 11.4813 1.36549 11.2941C1.36549 10.1708 1.79708 9.09359 2.56532 8.29931C3.33356 7.50504 4.37551 7.05882 5.46196 7.05882C6.54841 7.05882 7.59037 7.50504 8.35861 8.29931C9.12684 9.09359 9.55843 10.1708 9.55843 11.2941C9.55843 11.4813 9.63037 11.6609 9.75841 11.7933C9.88645 11.9256 10.0601 12 10.2412 12C10.4223 12 10.5959 11.9256 10.724 11.7933C10.852 11.6609 10.9239 11.4813 10.9239 11.2941C10.9229 10.2094 10.6198 9.14792 10.0507 8.23662C9.48165 7.32531 8.67077 6.60274 7.71502 6.15529ZM5.46196 5.64706C5.05686 5.64706 4.66085 5.52286 4.32402 5.29017C3.98719 5.05748 3.72467 4.72675 3.56964 4.3398C3.41461 3.95285 3.37405 3.52706 3.45308 3.11628C3.53211 2.7055 3.72719 2.32817 4.01364 2.03201C4.30009 1.73585 4.66505 1.53416 5.06237 1.45246C5.45969 1.37075 5.87152 1.41268 6.24579 1.57296C6.62005 1.73324 6.93994 2.00466 7.16501 2.35291C7.39007 2.70116 7.5102 3.11058 7.5102 3.52941C7.5102 4.09105 7.2944 4.62968 6.91028 5.02681C6.52617 5.42395 6.00519 5.64706 5.46196 5.64706ZM12.1119 5.87294C12.5488 5.36423 12.8343 4.7358 12.9338 4.0633C13.0333 3.39079 12.9428 2.70288 12.673 2.08235C12.4032 1.46183 11.9657 0.93515 11.4131 0.56571C10.8605 0.196271 10.2165 -0.000181835 9.55843 1.2629e-07C9.37736 1.2629e-07 9.2037 0.0743696 9.07566 0.206748C8.94762 0.339127 8.87569 0.518671 8.87569 0.705883C8.87569 0.893094 8.94762 1.07264 9.07566 1.20502C9.2037 1.3374 9.37736 1.41176 9.55843 1.41176C10.1017 1.41176 10.6226 1.63487 11.0068 2.03201C11.3909 2.42915 11.6067 2.96778 11.6067 3.52941C11.6057 3.90017 11.5106 4.26417 11.3309 4.585C11.1512 4.90584 10.8931 5.17227 10.5826 5.35765C10.4813 5.41802 10.3968 5.50423 10.337 5.60805C10.2772 5.71187 10.2442 5.82981 10.2412 5.95059C10.2383 6.07042 10.265 6.18903 10.3188 6.29524C10.3725 6.40145 10.4516 6.49176 10.5484 6.55765L10.8147 6.74118L10.9034 6.79059C11.7264 7.19415 12.4207 7.83246 12.9046 8.63034C13.3884 9.42822 13.6416 10.3524 13.6344 11.2941C13.6344 11.4813 13.7064 11.6609 13.8344 11.7933C13.9624 11.9256 14.1361 12 14.3172 12C14.4982 12 14.6719 11.9256 14.7999 11.7933C14.928 11.6609 14.9999 11.4813 14.9999 11.2941C15.0055 10.2109 14.7431 9.14418 14.2376 8.19534C13.7321 7.2465 13.0004 6.44704 12.1119 5.87294Z" fill="#513556"/>
</symbol><symbol id="individual" viewBox="0 0 12 12">
<path d="M8.22805 6.42559C8.81919 5.96306 9.25067 5.32878 9.46246 4.611C9.67425 3.89323 9.65582 3.12765 9.40973 2.42078C9.16364 1.71391 8.70213 1.1009 8.08941 0.667026C7.47669 0.233154 6.74322 0 5.99106 0C5.23889 0 4.50543 0.233154 3.8927 0.667026C3.27998 1.1009 2.81848 1.71391 2.57239 2.42078C2.3263 3.12765 2.30787 3.89323 2.51966 4.611C2.73145 5.32878 3.16293 5.96306 3.75407 6.42559C2.74113 6.82919 1.85732 7.49858 1.19684 8.36243C0.536353 9.22627 0.123966 10.2522 0.00363697 11.3308C-0.00507307 11.4095 0.00189835 11.4892 0.024153 11.5653C0.0464077 11.6413 0.0835099 11.7123 0.133341 11.7741C0.23398 11.8989 0.380358 11.9789 0.540274 11.9964C0.70019 12.0139 0.860543 11.9675 0.986059 11.8674C1.11158 11.7673 1.19197 11.6217 1.20956 11.4627C1.34196 10.2905 1.90399 9.20788 2.78825 8.42172C3.67252 7.63556 4.81703 7.20096 6.00312 7.20096C7.18921 7.20096 8.33372 7.63556 9.21798 8.42172C10.1022 9.20788 10.6643 10.2905 10.7967 11.4627C10.8131 11.61 10.8838 11.7461 10.9951 11.8447C11.1065 11.9432 11.2506 11.9973 11.3996 11.9964H11.466C11.624 11.9783 11.7685 11.8988 11.8679 11.7753C11.9673 11.6517 12.0135 11.4941 11.9966 11.3368C11.8757 10.2551 11.4611 9.22657 10.7972 8.3614C10.1333 7.49623 9.24519 6.82705 8.22805 6.42559ZM5.99106 5.99984C5.51404 5.99984 5.04773 5.85916 4.6511 5.5956C4.25448 5.33204 3.94534 4.95742 3.7628 4.51913C3.58025 4.08084 3.53249 3.59856 3.62555 3.13327C3.71861 2.66799 3.94832 2.2406 4.28562 1.90514C4.62292 1.56969 5.05268 1.34124 5.52053 1.24869C5.98838 1.15614 6.47332 1.20364 6.91403 1.38519C7.35474 1.56673 7.73142 1.87417 7.99644 2.26862C8.26146 2.66307 8.40291 3.12682 8.40291 3.60122C8.40291 4.23737 8.1488 4.84747 7.69649 5.2973C7.24418 5.74713 6.63072 5.99984 5.99106 5.99984Z" fill="#513556"/>
</symbol><symbol id="model" viewBox="0 0 19 19">
<path d="M9.5 0C7.65395 0.0035044 5.84875 0.543307 4.3043 1.55366C2.75984 2.56401 1.54279 4.0013 0.801372 5.69046C0.0599567 7.37963 -0.173817 9.24776 0.128525 11.0673C0.430867 12.8869 1.25628 14.5793 2.50421 15.9385C3.39551 16.9038 4.47725 17.6741 5.68129 18.2011C6.88532 18.728 8.18554 19 9.5 19C10.8145 19 12.1147 18.728 13.3187 18.2011C14.5227 17.6741 15.6045 16.9038 16.4958 15.9385C17.7437 14.5793 18.5691 12.8869 18.8715 11.0673C19.1738 9.24776 18.94 7.37963 18.1986 5.69046C17.4572 4.0013 16.2402 2.56401 14.6957 1.55366C13.1512 0.543307 11.3461 0.0035044 9.5 0ZM9.5 17.1177C7.5283 17.1147 5.63463 16.3477 4.21747 14.978C4.64773 13.9315 5.37966 13.0364 6.32025 12.4064C7.26085 11.7765 8.36764 11.4401 9.5 11.4401C10.6324 11.4401 11.7392 11.7765 12.6797 12.4064C13.6203 13.0364 14.3523 13.9315 14.7825 14.978C13.3654 16.3477 11.4717 17.1147 9.5 17.1177ZM7.59639 7.60786C7.59639 7.23169 7.70803 6.86396 7.9172 6.55119C8.12637 6.23841 8.42368 5.99463 8.77152 5.85068C9.11936 5.70672 9.50211 5.66906 9.87138 5.74244C10.2406 5.81583 10.5798 5.99698 10.8461 6.26297C11.1123 6.52897 11.2936 6.86786 11.367 7.23681C11.4405 7.60575 11.4028 7.98817 11.2587 8.33571C11.1146 8.68325 10.8706 8.9803 10.5576 9.18929C10.2445 9.39828 9.8765 9.50983 9.5 9.50983C8.99513 9.50983 8.51094 9.30944 8.15394 8.95276C7.79694 8.59607 7.59639 8.1123 7.59639 7.60786ZM16.077 13.3138C15.2266 11.8604 13.9177 10.73 12.3554 10.0994C12.8401 9.5504 13.1558 8.8733 13.2648 8.14939C13.3739 7.42548 13.2715 6.68552 12.9701 6.01829C12.6686 5.35107 12.1808 4.78493 11.5653 4.3878C10.9498 3.99068 10.2327 3.77944 9.5 3.77944C8.76731 3.77944 8.05018 3.99068 7.43467 4.3878C6.81915 4.78493 6.3314 5.35107 6.02995 6.01829C5.72849 6.68552 5.62613 7.42548 5.73515 8.14939C5.84417 8.8733 6.15995 9.5504 6.64458 10.0994C5.08228 10.73 3.77342 11.8604 2.92301 13.3138C2.24527 12.1603 1.88717 10.8474 1.88554 9.50983C1.88554 7.4921 2.68777 5.55701 4.11576 4.13026C5.54375 2.70351 7.48052 1.90197 9.5 1.90197C11.5195 1.90197 13.4563 2.70351 14.8842 4.13026C16.3122 5.55701 17.1145 7.4921 17.1145 9.50983C17.1128 10.8474 16.7547 12.1603 16.077 13.3138Z" fill="#CE93D8"/>
</symbol><symbol id="painless" viewBox="0 0 19 17">
<path d="M17.2804 1.76207C16.2665 0.74543 14.9272 0.129421 13.5043 0.0251955C12.0814 -0.0790302 10.6686 0.335391 9.52079 1.19368C8.31087 0.281986 6.8049 -0.13142 5.30615 0.036713C3.80741 0.204846 2.42721 0.942028 1.44349 2.09981C0.45978 3.25759 -0.0543779 4.74997 0.00456013 6.27642C0.0634982 7.80287 0.691154 9.25001 1.76113 10.3264L7.46676 16.1548C8.00167 16.696 8.72675 17 9.48275 17C10.2388 17 10.9638 16.696 11.4987 16.1548L17.2044 10.3264C17.7663 9.7702 18.2142 9.10698 18.5223 8.37485C18.8304 7.64272 18.9927 6.85612 18.9998 6.06026C19.0068 5.2644 18.8586 4.47497 18.5635 3.73734C18.2685 2.99971 17.8324 2.32843 17.2804 1.76207ZM15.9396 8.94879L10.234 14.729C10.1456 14.8193 10.0404 14.891 9.92454 14.9399C9.80865 14.9888 9.68436 15.014 9.55883 15.014C9.43329 15.014 9.309 14.9888 9.19312 14.9399C9.07724 14.891 8.97206 14.8193 8.88366 14.729L3.17803 8.94879C2.43226 8.1765 2.01466 7.13907 2.01466 6.05869C2.01466 4.9783 2.43226 3.94087 3.17803 3.16858C3.93798 2.40848 4.96292 1.98226 6.03085 1.98226C7.09877 1.98226 8.12371 2.40848 8.88366 3.16858C8.97206 3.25888 9.07724 3.33055 9.19312 3.37946C9.309 3.42837 9.43329 3.45355 9.55883 3.45355C9.68436 3.45355 9.80865 3.42837 9.92454 3.37946C10.0404 3.33055 10.1456 3.25888 10.234 3.16858C10.9939 2.40848 12.0189 1.98226 13.0868 1.98226C14.1547 1.98226 15.1797 2.40848 15.9396 3.16858C16.6911 3.94173 17.1123 4.98326 17.1123 6.06832C17.1123 7.15338 16.6911 8.19491 15.9396 8.96806V8.94879Z" fill="#CE93D8"/>
</symbol><symbol id="practice" viewBox="0 0 17 19">
<path d="M16.8838 7.20205C16.7954 7.04577 16.6602 6.91435 16.4932 6.82236C16.3261 6.73036 16.1338 6.68138 15.9374 6.68085H10.6206V0.995095C10.632 0.787265 10.5663 0.581865 10.4337 0.410599C10.3011 0.239333 10.1089 0.111724 9.88683 0.0474685C9.67333 -0.0151288 9.44307 -0.0158322 9.2291 0.045459C9.01512 0.10675 8.82844 0.226884 8.69586 0.388614L0.188912 10.8125C0.0823262 10.9498 0.0183252 11.1097 0.00338686 11.2761C-0.0115515 11.4425 0.0231031 11.6095 0.103843 11.7601C0.178195 11.9324 0.307359 12.0815 0.475479 12.1892C0.643599 12.297 0.84336 12.3586 1.05024 12.3666H6.36708V18.0524C6.36725 18.2522 6.43829 18.4469 6.57007 18.6086C6.70185 18.7702 6.88761 18.8907 7.1008 18.9526C7.20764 18.9821 7.31862 18.9981 7.43045 19C7.59823 19.0004 7.76374 18.9654 7.91344 18.8979C8.06314 18.8303 8.19278 18.7322 8.29178 18.6115L16.7987 8.18758C16.9133 8.04619 16.9819 7.87937 16.9969 7.70548C17.0119 7.53159 16.9727 7.35739 16.8838 7.20205ZM8.49382 15.1337V11.419C8.49382 11.1677 8.38178 10.9266 8.18236 10.7489C7.98294 10.5712 7.71247 10.4714 7.43045 10.4714H3.17698L8.49382 3.91378V7.62848C8.49382 7.87981 8.60585 8.12084 8.80527 8.29855C9.00469 8.47627 9.27516 8.57611 9.55719 8.57611H13.8107L8.49382 15.1337Z" fill="#CE93D8"/>
</symbol><symbol id="question" viewBox="0 0 19 19">
<path d="M8.8255 12.6255C8.78465 12.6706 8.74658 12.7182 8.7115 12.768C8.67555 12.821 8.6468 12.8785 8.626 12.939C8.59861 12.9928 8.5794 13.0505 8.569 13.11C8.56434 13.1732 8.56434 13.2367 8.569 13.3C8.56579 13.4246 8.59182 13.5483 8.645 13.661C8.68767 13.7789 8.75574 13.886 8.84439 13.9746C8.93305 14.0633 9.04011 14.1313 9.158 14.174C9.27172 14.2243 9.39468 14.2502 9.519 14.2502C9.64333 14.2502 9.76629 14.2243 9.88 14.174C9.99789 14.1313 10.105 14.0633 10.1936 13.9746C10.2823 13.886 10.3503 13.7789 10.393 13.661C10.4352 13.5455 10.4545 13.4229 10.45 13.3C10.4507 13.175 10.4268 13.051 10.3795 12.9353C10.3322 12.8195 10.2625 12.7143 10.1745 12.6255C10.0862 12.5365 9.98112 12.4658 9.86535 12.4176C9.74958 12.3693 9.62541 12.3445 9.5 12.3445C9.37459 12.3445 9.25042 12.3693 9.13465 12.4176C9.01889 12.4658 8.91382 12.5365 8.8255 12.6255ZM9.5 0C7.62108 0 5.78435 0.557165 4.22209 1.60104C2.65982 2.64491 1.44218 4.12861 0.723149 5.86451C0.0041162 7.6004 -0.184015 9.51054 0.182544 11.3534C0.549104 13.1962 1.45389 14.8889 2.78249 16.2175C4.11109 17.5461 5.80383 18.4509 7.64665 18.8175C9.48946 19.184 11.3996 18.9959 13.1355 18.2769C14.8714 17.5578 16.3551 16.3402 17.399 14.7779C18.4428 13.2156 19 11.3789 19 9.5C19 8.25244 18.7543 7.0171 18.2769 5.86451C17.7994 4.71191 17.0997 3.66464 16.2175 2.78248C15.3354 1.90033 14.2881 1.20056 13.1355 0.723144C11.9829 0.245725 10.7476 0 9.5 0ZM9.5 17.1C7.99686 17.1 6.52748 16.6543 5.27767 15.8192C4.02786 14.9841 3.05375 13.7971 2.47852 12.4084C1.90329 11.0197 1.75279 9.49157 2.04604 8.01731C2.33928 6.54306 3.06311 5.18887 4.12599 4.12599C5.18887 3.06311 6.54306 2.33928 8.01732 2.04603C9.49157 1.75278 11.0197 1.90329 12.4084 2.47852C13.7971 3.05374 14.9841 4.02785 15.8192 5.27766C16.6543 6.52748 17.1 7.99686 17.1 9.5C17.1 11.5156 16.2993 13.4487 14.874 14.874C13.4487 16.2993 11.5156 17.1 9.5 17.1ZM9.5 4.75C8.99941 4.74968 8.50757 4.88121 8.07397 5.13137C7.64036 5.38152 7.2803 5.74148 7.03 6.175C6.96127 6.28313 6.91511 6.40404 6.89432 6.53047C6.87352 6.65689 6.87852 6.78622 6.909 6.91067C6.93948 7.03511 6.99482 7.15211 7.07169 7.25461C7.14856 7.35712 7.24537 7.44301 7.3563 7.50713C7.46723 7.57125 7.58998 7.61227 7.71717 7.62772C7.84436 7.64317 7.97336 7.63273 8.09641 7.59703C8.21947 7.56133 8.33402 7.50111 8.4332 7.41999C8.53237 7.33887 8.61411 7.23853 8.6735 7.125C8.7572 6.98002 8.87772 6.85974 9.02286 6.77633C9.168 6.69291 9.3326 6.64933 9.5 6.65C9.75196 6.65 9.99359 6.75009 10.1718 6.92825C10.3499 7.10641 10.45 7.34804 10.45 7.6C10.45 7.85195 10.3499 8.09359 10.1718 8.27175C9.99359 8.44991 9.75196 8.55 9.5 8.55C9.24805 8.55 9.00641 8.65009 8.82825 8.82825C8.65009 9.00641 8.55 9.24804 8.55 9.5V10.45C8.55 10.702 8.65009 10.9436 8.82825 11.1217C9.00641 11.2999 9.24805 11.4 9.5 11.4C9.75196 11.4 9.99359 11.2999 10.1718 11.1217C10.3499 10.9436 10.45 10.702 10.45 10.45V10.279C11.0783 10.051 11.6065 9.60946 11.9422 9.03152C12.278 8.45358 12.3999 7.77603 12.2867 7.11729C12.1735 6.45856 11.8324 5.86057 11.323 5.42784C10.8136 4.99511 10.1684 4.75518 9.5 4.75Z" fill="#CE93D8"/>
</symbol><symbol id="slider" viewBox="0 0 7 12">
<path d="M1 1L6 6L1 11" stroke="#AB47BC" stroke-width="2" stroke-linecap="round" stroke-linejoin="round"/>
</symbol><symbol id="speed" viewBox="0 0 17 21">
<path d="M5.16402 7.02019L5.1619 7.02193L5.15988 7.0239L5.16402 7.02019ZM14.5651 6.84311C14.4994 6.77945 14.4265 6.72375 14.3479 6.67715C14.2366 6.61132 14.1131 6.56914 13.985 6.5532C13.8568 6.53727 13.7268 6.54792 13.6029 6.5845C13.4791 6.62109 13.364 6.68282 13.2648 6.76589C13.1656 6.84896 13.0844 6.9516 13.0262 7.06747C12.7009 7.71179 12.2522 8.28519 11.7059 8.7548C11.7894 8.28164 11.8316 7.80204 11.8318 7.32149C11.8335 5.85958 11.4499 4.42331 10.7199 3.15891C9.98983 1.89452 8.93952 0.84716 7.67587 0.123479C7.53667 0.044158 7.3797 0.00168621 7.21969 4.9185e-05C7.05968 -0.00158784 6.90189 0.0376635 6.76111 0.11412C6.62033 0.190577 6.50118 0.301732 6.41484 0.437156C6.3285 0.57258 6.2778 0.727833 6.26751 0.888346C6.21466 1.7885 5.98055 2.6685 5.57938 3.47502C5.1782 4.28154 4.61831 4.9978 3.93363 5.5804L3.71597 5.7584C3 6.24266 2.36626 6.83962 1.83908 7.52639C1.0196 8.56413 0.451921 9.77953 0.181066 11.0762C-0.0897889 12.3729 -0.0563731 13.7151 0.278664 14.9965C0.6137 16.278 1.24114 17.4633 2.11123 18.4585C2.98132 19.4538 4.07013 20.2316 5.2913 20.7302C5.43469 20.7891 5.59029 20.8116 5.74437 20.7958C5.89846 20.7799 6.0463 20.7262 6.17486 20.6394C6.30341 20.5525 6.40873 20.4352 6.48152 20.2978C6.55431 20.1603 6.59233 20.007 6.59223 19.8513C6.59156 19.7506 6.5757 19.6506 6.5452 19.5546C6.3339 18.7563 6.27306 17.9252 6.3658 17.1043C7.25947 18.7986 8.69398 20.1417 10.4387 20.9175C10.6517 21.0133 10.8924 21.0261 11.1143 20.9536C12.4928 20.5064 13.7346 19.7123 14.7217 18.6468C15.7089 17.5812 16.4086 16.2796 16.7544 14.8657C17.1002 13.4518 17.0805 11.9725 16.6974 10.5683C16.3142 9.16415 15.5802 7.8818 14.5651 6.84311ZM10.8773 19.0243C10.054 18.6049 9.32777 18.0161 8.74579 17.296C8.16381 16.576 7.73911 15.7408 7.49931 14.845C7.42607 14.5433 7.36941 14.2378 7.3296 13.9299C7.30262 13.7338 7.21536 13.5511 7.08001 13.4073C6.94465 13.2635 6.76798 13.1659 6.5747 13.128C6.51515 13.1161 6.4546 13.1102 6.3939 13.1103C6.22791 13.1103 6.06483 13.1542 5.92112 13.2377C5.77741 13.3212 5.65815 13.4413 5.57535 13.586C4.79172 14.9446 4.39763 16.4948 4.43676 18.0648C3.74755 17.5261 3.17154 16.8553 2.74213 16.0913C2.31272 15.3272 2.03844 14.4851 1.93519 13.6137C1.83194 12.7422 1.90178 11.8589 2.14066 11.0148C2.37953 10.1707 2.78269 9.38272 3.32677 8.69642C3.73988 8.15703 4.23824 7.68943 4.80199 7.31226C4.8264 7.29642 4.84981 7.27908 4.87209 7.26034C4.87209 7.26034 5.15229 7.02729 5.16187 7.02196C6.50741 5.87795 7.46443 4.34052 7.89956 2.62389C8.9286 3.58011 9.61475 4.8511 9.85149 6.23952C10.0882 7.62793 9.86229 9.05606 9.20877 10.3022C9.12243 10.4684 9.08701 10.6567 9.10699 10.8432C9.12696 11.0297 9.20142 11.2061 9.321 11.35C9.44057 11.494 9.59988 11.5992 9.77885 11.6523C9.95782 11.7054 10.1484 11.704 10.3266 11.6484C11.7733 11.1925 13.0463 10.3021 13.9743 9.09696C14.5321 9.92508 14.8967 10.869 15.0411 11.8585C15.1854 12.848 15.1058 13.8574 14.8081 14.8116C14.5104 15.7659 14.0023 16.6403 13.3217 17.3697C12.6411 18.0991 11.8055 18.6647 10.8772 19.0244L10.8773 19.0243Z" fill="#CE93D8"/>
</symbol><symbol id="theory" viewBox="0 0 19 19">
<path d="M18.2 0.178493C17.5199 0.0625063 16.8313 0.00280386 16.1412 4.08668e-06C13.7868 -0.00190713 11.4814 0.666587 9.5 1.9258C7.51348 0.68312 5.20851 0.0310337 2.85881 0.0469747C2.16874 0.0497745 1.4801 0.109477 0.800043 0.225463C0.577285 0.263489 0.375558 0.379018 0.231191 0.551245C0.086823 0.723472 0.00930196 0.941078 0.0125881 1.16488V12.4378C0.0105562 12.5759 0.0392726 12.7126 0.096694 12.8384C0.154115 12.9642 0.238831 13.076 0.344812 13.1656C0.450793 13.2553 0.575436 13.3208 0.709871 13.3574C0.844306 13.3939 0.98523 13.4007 1.12262 13.3773C2.48218 13.1442 3.8751 13.1828 5.21934 13.491C6.56358 13.7991 7.83195 14.3705 8.94973 15.1715L9.06358 15.2373H9.16794C9.27316 15.2807 9.38601 15.303 9.5 15.303C9.61399 15.303 9.72684 15.2807 9.83206 15.2373H9.93642L10.0503 15.1715C11.1603 14.3526 12.425 13.7627 13.7695 13.4368C15.114 13.1108 16.5109 13.0554 17.8774 13.2739C18.0148 13.2974 18.1557 13.2906 18.2901 13.254C18.4246 13.2175 18.5492 13.152 18.6552 13.0623C18.7612 12.9726 18.8459 12.8609 18.9033 12.7351C18.9607 12.6093 18.9894 12.4725 18.9874 12.3345V1.06154C18.9775 0.847499 18.8941 0.64323 18.7508 0.482616C18.6076 0.322002 18.4132 0.214695 18.2 0.178493ZM8.55126 12.6633C6.79598 11.749 4.84217 11.2718 2.85881 11.273C2.54573 11.273 2.23264 11.273 1.91007 11.273V1.87883C2.22606 1.8608 2.54283 1.8608 2.85881 1.87883C4.88284 1.87662 6.8627 2.46473 8.55126 3.56978V12.6633ZM17.0899 11.3105C16.7674 11.3105 16.4543 11.3105 16.1412 11.3105C14.1578 11.3093 12.204 11.7865 10.4487 12.7009V3.56978C12.1373 2.46473 14.1172 1.87662 16.1412 1.87883C16.4572 1.8608 16.7739 1.8608 17.0899 1.87883V11.3105ZM18.2 15.2091C17.5199 15.0931 16.8313 15.0334 16.1412 15.0306C13.7868 15.0287 11.4814 15.6972 9.5 16.9564C7.51857 15.6972 5.21324 15.0287 2.85881 15.0306C2.16874 15.0334 1.4801 15.0931 0.800043 15.2091C0.676543 15.2285 0.558136 15.2719 0.45163 15.3368C0.345124 15.4017 0.252621 15.4867 0.17944 15.5871C0.106259 15.6875 0.0538445 15.8013 0.0252099 15.9218C-0.00342464 16.0423 -0.00771411 16.1673 0.0125881 16.2894C0.0608019 16.5334 0.204699 16.7485 0.412758 16.8876C0.620817 17.0267 0.876075 17.0785 1.12262 17.0316C2.48218 16.7985 3.8751 16.8372 5.21934 17.1453C6.56358 17.4535 7.83195 18.0249 8.94973 18.8258C9.11041 18.9391 9.30275 19 9.5 19C9.69725 19 9.88959 18.9391 10.0503 18.8258C11.1681 18.0249 12.4364 17.4535 13.7807 17.1453C15.1249 16.8372 16.5178 16.7985 17.8774 17.0316C18.1239 17.0785 18.3792 17.0267 18.5872 16.8876C18.7953 16.7485 18.9392 16.5334 18.9874 16.2894C19.0077 16.1673 19.0034 16.0423 18.9748 15.9218C18.9462 15.8013 18.8937 15.6875 18.8206 15.5871C18.7474 15.4867 18.6549 15.4017 18.5484 15.3368C18.4419 15.2719 18.3235 15.2285 18.2 15.2091Z" fill="#CE93D8"/>
</symbol><symbol id="tick" viewBox="0 0 9 7">
<path d="M8 1L3.33333 6L1 3.5" stroke="#CE93D8" stroke-width="2" stroke-linecap="round" stroke-linejoin="round"/>
</symbol><symbol id="time" viewBox="0 0 12 12">
<path d="M6 0C4.81331 0 3.65328 0.351894 2.66658 1.01118C1.67989 1.67047 0.910851 2.60754 0.456725 3.7039C0.0025997 4.80025 -0.11622 6.00665 0.115291 7.17054C0.346802 8.33443 0.918247 9.40352 1.75736 10.2426C2.59648 11.0818 3.66557 11.6532 4.82946 11.8847C5.99335 12.1162 7.19975 11.9974 8.2961 11.5433C9.39246 11.0891 10.3295 10.3201 10.9888 9.33342C11.6481 8.34672 12 7.18669 12 6C12 5.21207 11.8448 4.43185 11.5433 3.7039C11.2417 2.97594 10.7998 2.31451 10.2426 1.75736C9.68549 1.20021 9.02406 0.758251 8.2961 0.456723C7.56815 0.155195 6.78793 0 6 0ZM6 10.8C5.05065 10.8 4.12262 10.5185 3.33326 9.99105C2.54391 9.46362 1.92868 8.71396 1.56538 7.83688C1.20208 6.95979 1.10702 5.99467 1.29223 5.06357C1.47744 4.13246 1.9346 3.27718 2.60589 2.60589C3.27718 1.93459 4.13246 1.47744 5.06357 1.29223C5.99468 1.10702 6.9598 1.20208 7.83688 1.56538C8.71397 1.92868 9.46362 2.54391 9.99105 3.33326C10.5185 4.12262 10.8 5.05065 10.8 6C10.8 7.27304 10.2943 8.49394 9.39411 9.39411C8.49394 10.2943 7.27304 10.8 6 10.8ZM7.86 6.378L6.6 5.652V3C6.6 2.84087 6.53679 2.68826 6.42427 2.57574C6.31174 2.46321 6.15913 2.4 6 2.4C5.84087 2.4 5.68826 2.46321 5.57574 2.57574C5.46322 2.68826 5.4 2.84087 5.4 3V6C5.4 6 5.4 6.048 5.4 6.072C5.40355 6.11334 5.41368 6.15385 5.43 6.192C5.44236 6.2276 5.45845 6.26179 5.478 6.294C5.49442 6.3281 5.51454 6.3603 5.538 6.39L5.634 6.468L5.688 6.522L7.248 7.422C7.33944 7.47383 7.4429 7.50072 7.548 7.5C7.68085 7.50093 7.81025 7.45774 7.91591 7.3772C8.02157 7.29667 8.09752 7.18334 8.13183 7.055C8.16615 6.92665 8.1569 6.79055 8.10553 6.66803C8.05417 6.5455 7.96359 6.4435 7.848 6.378H7.86Z" fill="#513556"/>
</symbol><symbol id="wax" viewBox="0 0 19 19">
<path d="M12.084 6.4505L8.0085 10.5355L6.441 8.968C6.35584 8.86855 6.25104 8.78778 6.13317 8.73076C6.01531 8.67374 5.88694 8.64169 5.7561 8.63664C5.62527 8.63159 5.4948 8.65363 5.3729 8.70139C5.25099 8.74915 5.14027 8.8216 5.04769 8.91418C4.9551 9.00676 4.88266 9.11748 4.8349 9.23939C4.78714 9.3613 4.76509 9.49177 4.77014 9.6226C4.7752 9.75343 4.80724 9.88181 4.86426 9.99967C4.92129 10.1175 5.00206 10.2223 5.1015 10.3075L7.334 12.5495C7.42277 12.6375 7.52805 12.7072 7.64379 12.7545C7.75954 12.8018 7.88348 12.8257 8.0085 12.825C8.25773 12.8239 8.49656 12.725 8.6735 12.5495L13.4235 7.7995C13.5125 7.71118 13.5832 7.60611 13.6314 7.49035C13.6797 7.37458 13.7045 7.25041 13.7045 7.125C13.7045 6.99959 13.6797 6.87542 13.6314 6.75965C13.5832 6.64388 13.5125 6.53881 13.4235 6.4505C13.2455 6.27356 13.0047 6.17425 12.7538 6.17425C12.5028 6.17425 12.262 6.27356 12.084 6.4505ZM9.5 0C7.62108 0 5.78435 0.557165 4.22209 1.60104C2.65982 2.64491 1.44218 4.12861 0.723149 5.86451C0.0041162 7.6004 -0.184015 9.51054 0.182544 11.3534C0.549104 13.1962 1.45389 14.8889 2.78249 16.2175C4.11109 17.5461 5.80383 18.4509 7.64665 18.8175C9.48946 19.184 11.3996 18.9959 13.1355 18.2769C14.8714 17.5578 16.3551 16.3402 17.399 14.7779C18.4428 13.2156 19 11.3789 19 9.5C19 8.25244 18.7543 7.0171 18.2769 5.86451C17.7994 4.71191 17.0997 3.66464 16.2175 2.78248C15.3354 1.90033 14.2881 1.20056 13.1355 0.723144C11.9829 0.245725 10.7476 0 9.5 0ZM9.5 17.1C7.99686 17.1 6.52748 16.6543 5.27767 15.8192C4.02786 14.9841 3.05375 13.7971 2.47852 12.4084C1.90329 11.0197 1.75279 9.49157 2.04604 8.01731C2.33928 6.54306 3.06311 5.18887 4.12599 4.12599C5.18887 3.06311 6.54306 2.33928 8.01732 2.04603C9.49157 1.75278 11.0197 1.90329 12.4084 2.47852C13.7971 3.05374 14.9841 4.02785 15.8192 5.27766C16.6543 6.52748 17.1 7.99686 17.1 9.5C17.1 11.5156 16.2993 13.4487 14.874 14.874C13.4487 16.2993 11.5156 17.1 9.5 17.1Z" fill="#CE93D8"/>
</symbol><symbol id="safety" viewBox="0 0 32 38">
<path d="M31.26 3.13286C31.0276 2.95424 30.7561 2.82738 30.4654 2.7616C30.1747 2.69582 29.8721 2.69279 29.58 2.75274C27.4429 3.17836 25.2367 3.18379 23.0973 2.76867C20.9578 2.35356 18.9305 1.52669 17.14 0.338981C16.8052 0.11827 16.4075 0 16 0C15.5925 0 15.1948 0.11827 14.86 0.338981C13.0695 1.52669 11.0422 2.35356 8.90274 2.76867C6.76332 3.18379 4.55714 3.17836 2.42001 2.75274C2.12789 2.69279 1.82534 2.69582 1.53461 2.7616C1.24388 2.82738 0.972362 2.95424 0.740011 3.13286C0.50797 3.31174 0.321053 3.53775 0.192996 3.79429C0.0649389 4.05083 -0.00100438 4.33138 1.1563e-05 4.61532V18.7747C-0.00176651 21.4997 0.681557 24.1857 1.99308 26.6089C3.3046 29.0322 5.20637 31.1226 7.54001 32.7061L14.84 37.6477C15.1787 37.8768 15.5842 38 16 38C16.4158 38 16.8213 37.8768 17.16 37.6477L24.46 32.7061C26.7936 31.1226 28.6954 29.0322 30.0069 26.6089C31.3184 24.1857 32.0018 21.4997 32 18.7747V4.61532C32.001 4.33138 31.9351 4.05083 31.807 3.79429C31.6789 3.53775 31.492 3.31174 31.26 3.13286ZM28 18.7747C28.0015 20.8935 27.4706 22.9819 26.4513 24.8662C25.432 26.7505 23.9539 28.3763 22.14 29.6081L16 33.7704L9.86 29.6081C8.04608 28.3763 6.56798 26.7505 5.54871 24.8662C4.52944 22.9819 3.99847 20.8935 4.00001 18.7747V6.801C8.19286 7.14203 12.3921 6.21756 16 4.15918C19.6079 6.21756 23.8071 7.14203 28 6.801V18.7747ZM19.08 14.4224L13.7 19.554L11.92 17.8435C11.5434 17.4856 11.0326 17.2845 10.5 17.2845C9.9674 17.2845 9.45661 17.4856 9.08 17.8435C8.7034 18.2013 8.49182 18.6868 8.49182 19.1929C8.49182 19.699 8.7034 20.1844 9.08 20.5423L12.28 23.5833C12.4659 23.7614 12.6871 23.9028 12.9308 23.9993C13.1746 24.0958 13.436 24.1454 13.7 24.1454C13.964 24.1454 14.2254 24.0958 14.4692 23.9993C14.7129 23.9028 14.9341 23.7614 15.12 23.5833L22 17.1022C22.3766 16.7443 22.5882 16.2589 22.5882 15.7528C22.5882 15.2467 22.3766 14.7613 22 14.4034C21.6234 14.0455 21.1126 13.8444 20.58 13.8444C20.0474 13.8444 19.5366 14.0455 19.16 14.4034L19.08 14.4224Z" fill="#CE93D8"/>
</symbol><symbol id="service" viewBox="0 0 38 34">
<path d="M34.5356 3.60185C32.521 1.56466 29.8505 0.321282 27.0065 0.0963044C24.1625 -0.128673 21.3325 0.679586 19.0276 2.37508C16.6096 0.561072 13.5998 -0.261487 10.6045 0.0730482C7.60924 0.407584 4.85086 1.87436 2.88487 4.17802C0.918885 6.48167 -0.108676 9.45107 0.00911359 12.4883C0.126903 15.5255 1.38129 18.4048 3.51968 20.5466L15.3217 32.4692C16.31 33.4502 17.641 34 19.0276 34C20.4142 34 21.7453 33.4502 22.7336 32.4692L34.5356 20.5466C36.7545 18.2948 38 15.249 38 12.0742C38 8.89942 36.7545 5.8536 34.5356 3.60185ZM31.8559 17.9013L20.0539 29.8048C19.9196 29.9416 19.7597 30.0502 19.5836 30.1243C19.4074 30.1984 19.2185 30.2365 19.0276 30.2365C18.8368 30.2365 18.6478 30.1984 18.4717 30.1243C18.2955 30.0502 18.1357 29.9416 18.0014 29.8048L6.19937 17.8438C4.70893 16.3072 3.87433 14.243 3.87433 12.0934C3.87433 9.94372 4.70893 7.87953 6.19937 6.3429C7.71815 4.83051 9.76652 3.98247 11.9008 3.98247C14.0351 3.98247 16.0835 4.83051 17.6023 6.3429C17.7789 6.52256 17.9891 6.66517 18.2207 6.76248C18.4523 6.8598 18.7007 6.9099 18.9516 6.9099C19.2025 6.9099 19.4509 6.8598 19.6825 6.76248C19.9141 6.66517 20.1243 6.52256 20.301 6.3429C21.8197 4.83051 23.8681 3.98247 26.0024 3.98247C28.1367 3.98247 30.1851 4.83051 31.7038 6.3429C33.2148 7.8594 34.0768 9.91239 34.1052 12.0621C34.1336 14.2118 33.3262 16.2873 31.8559 17.8438V17.9013Z" fill="#CE93D8"/>
</symbol><symbol id="top-masters" viewBox="0 0 38 35">
<path d="M37.9363 13.2329C37.8164 12.8983 37.5985 12.6044 37.3088 12.3869C37.0192 12.1694 36.6703 12.0375 36.3045 12.0073L25.5082 10.4891L20.6698 1.03189C20.5144 0.722621 20.2718 0.461795 19.9698 0.279295C19.6678 0.0967942 19.3185 0 18.9621 0C18.6056 0 18.2564 0.0967942 17.9544 0.279295C17.6524 0.461795 17.4098 0.722621 17.2544 1.03189L12.416 10.4708L1.61969 12.0073C1.26852 12.0555 0.938375 12.1975 0.666715 12.4174C0.395054 12.6372 0.192758 12.9261 0.0827839 13.2512C-0.0178836 13.5689 -0.0269173 13.907 0.0566522 14.2293C0.140222 14.5516 0.31324 14.8458 0.557138 15.0805L8.39347 22.3974L6.49605 32.7875C6.41945 33.1322 6.44777 33.4908 6.57762 33.8204C6.70746 34.1499 6.93329 34.4362 7.22794 34.6449C7.5226 34.8536 7.87353 34.9758 8.23851 34.9968C8.60349 35.0177 8.96698 34.9366 9.28526 34.7631L18.9621 29.879L28.6389 34.7631C28.9052 34.9079 29.206 34.9836 29.5117 34.9826C29.9137 34.984 30.3056 34.8623 30.6312 34.635C30.9256 34.4317 31.1535 34.1515 31.288 33.8273C31.4224 33.5032 31.4579 33.1487 31.3902 32.8058L29.4928 22.4157L37.3291 15.0988C37.603 14.875 37.8055 14.5809 37.913 14.2506C38.0205 13.9203 38.0285 13.5674 37.9363 13.2329ZM26.2671 20.5499C26.0475 20.7555 25.8828 21.0093 25.787 21.2896C25.6911 21.5699 25.6671 21.8684 25.7169 22.1596L27.083 29.8424L19.9487 26.1839C19.6715 26.0517 19.3663 25.9829 19.057 25.9829C18.7476 25.9829 18.4424 26.0517 18.1652 26.1839L11.0309 29.8424L12.397 22.1596C12.4468 21.8684 12.4228 21.5699 12.327 21.2896C12.2311 21.0093 12.0664 20.7555 11.8468 20.5499L6.15452 15.0622L14.1426 13.9463C14.45 13.9051 14.7422 13.7918 14.9936 13.6164C15.245 13.441 15.448 13.2088 15.5847 12.9402L18.9621 5.97084L22.5292 12.9585C22.6659 13.2271 22.8689 13.4593 23.1203 13.6347C23.3717 13.8101 23.6639 13.9234 23.9713 13.9646L31.9594 15.0805L26.2671 20.5499Z" fill="#CE93D8"/>
</symbol><symbol id="with-children" viewBox="0 0 38 38">
<path d="M15.2 15.2C15.2 14.8242 15.0886 14.4569 14.8798 14.1444C14.671 13.832 14.3743 13.5884 14.0271 13.4446C13.6799 13.3008 13.2979 13.2632 12.9293 13.3365C12.5608 13.4098 12.2222 13.5908 11.9565 13.8565C11.6908 14.1222 11.5098 14.4608 11.4365 14.8293C11.3632 15.1979 11.4008 15.5799 11.5446 15.9271C11.6884 16.2743 11.932 16.571 12.2444 16.7798C12.5569 16.9886 12.9242 17.1 13.3 17.1C13.8039 17.1 14.2872 16.8998 14.6435 16.5435C14.9998 16.1872 15.2 15.7039 15.2 15.2ZM23.75 22.914C23.5343 22.7876 23.2957 22.705 23.048 22.671C22.8003 22.6369 22.5483 22.6521 22.3065 22.7157C22.0647 22.7792 21.8378 22.8898 21.6388 23.0413C21.4398 23.1927 21.2727 23.3819 21.147 23.598C20.9313 23.9772 20.619 24.2925 20.2419 24.5119C19.8648 24.7313 19.4363 24.8468 19 24.8468C18.5637 24.8468 18.1352 24.7313 17.7581 24.5119C17.381 24.2925 17.0687 23.9772 16.853 23.598C16.7273 23.3819 16.5602 23.1927 16.3612 23.0413C16.1622 22.8898 15.9353 22.7792 15.6935 22.7157C15.4517 22.6521 15.1997 22.6369 14.952 22.671C14.7043 22.705 14.4657 22.7876 14.25 22.914C13.8154 23.1646 13.4976 23.577 13.3659 24.0611C13.2342 24.5452 13.2993 25.0617 13.547 25.498C14.0981 26.4571 14.8924 27.2539 15.8498 27.808C16.8072 28.3621 17.8938 28.6539 19 28.6539C20.1062 28.6539 21.1928 28.3621 22.1502 27.808C23.1076 27.2539 23.9019 26.4571 24.453 25.498C24.7007 25.0617 24.7658 24.5452 24.6341 24.0611C24.5024 23.577 24.1846 23.1646 23.75 22.914ZM24.7 13.3C24.3242 13.3 23.9569 13.4114 23.6444 13.6202C23.332 13.829 23.0884 14.1257 22.9446 14.4729C22.8008 14.8201 22.7632 15.2021 22.8365 15.5707C22.9098 15.9392 23.0908 16.2778 23.3565 16.5435C23.6222 16.8092 23.9608 16.9902 24.3293 17.0635C24.6979 17.1368 25.0799 17.0992 25.4271 16.9554C25.7743 16.8116 26.071 16.568 26.2798 16.2556C26.4886 15.9431 26.6 15.5758 26.6 15.2C26.6 14.6961 26.3998 14.2128 26.0435 13.8565C25.6872 13.5002 25.2039 13.3 24.7 13.3ZM19 0C15.2422 0 11.5687 1.11433 8.44417 3.20208C5.31964 5.28982 2.88436 8.25722 1.4463 11.729C0.00823236 15.2008 -0.368031 19.0211 0.365088 22.7067C1.09821 26.3923 2.90778 29.7778 5.56498 32.435C8.22218 35.0922 11.6077 36.9018 15.2933 37.6349C18.9789 38.368 22.7992 37.9918 26.271 36.5537C29.7428 35.1156 32.7102 32.6804 34.7979 29.5558C36.8857 26.4313 38 22.7578 38 19C38 16.5049 37.5085 14.0342 36.5537 11.729C35.5989 9.42383 34.1993 7.32928 32.435 5.56497C30.6707 3.80066 28.5762 2.40113 26.271 1.44629C23.9658 0.491449 21.4951 0 19 0ZM19 34.2C15.4609 34.2153 12.0274 32.9951 9.2916 30.7499C6.55581 28.5047 4.68924 25.3752 4.01379 21.9011C3.33834 18.427 3.89634 14.8261 5.59157 11.7194C7.28681 8.61268 10.013 6.1949 13.3 4.883C13.2805 5.15498 13.2805 5.42802 13.3 5.7C13.3 7.21173 13.9005 8.66155 14.9695 9.73051C16.0385 10.7995 17.4883 11.4 19 11.4C19.5039 11.4 19.9872 11.1998 20.3435 10.8435C20.6998 10.4872 20.9 10.0039 20.9 9.5C20.9 8.99609 20.6998 8.51281 20.3435 8.1565C19.9872 7.80018 19.5039 7.6 19 7.6C18.4961 7.6 18.0128 7.39982 17.6565 7.0435C17.3002 6.68718 17.1 6.20391 17.1 5.7C17.1 5.19609 17.3002 4.71282 17.6565 4.3565C18.0128 4.00018 18.4961 3.8 19 3.8C23.0313 3.8 26.8975 5.40142 29.748 8.25198C32.5986 11.1025 34.2 14.9687 34.2 19C34.2 23.0313 32.5986 26.8975 29.748 29.748C26.8975 32.5986 23.0313 34.2 19 34.2Z" fill="#CE93D8"/>
</symbol></svg>