<?xml version="1.0" encoding="UTF-8"?><!DOCTYPE svg PUBLIC "-//W3C//DTD SVG 1.1//EN" "http://www.w3.org/Graphics/SVG/1.1/DTD/svg11.dtd"><svg xmlns="http://www.w3.org/2000/svg" xmlns:xlink="http://www.w3.org/1999/xlink"><symbol id="instagram" viewBox="0 0 30 30">
<path d="M15 11.28C14.2643 11.28 13.545 11.4982 12.9333 11.9069C12.3215 12.3157 11.8447 12.8967 11.5632 13.5764C11.2816 14.2562 11.2079 15.0041 11.3515 15.7257C11.495 16.4473 11.8493 17.1102 12.3696 17.6304C12.8898 18.1507 13.5527 18.505 14.2743 18.6485C14.9959 18.7921 15.7438 18.7184 16.4236 18.4368C17.1033 18.1553 17.6843 17.6785 18.0931 17.0667C18.5018 16.455 18.72 15.7357 18.72 15C18.72 14.5115 18.6238 14.0277 18.4368 13.5764C18.2499 13.1251 17.9759 12.715 17.6304 12.3696C17.285 12.0241 16.8749 11.7501 16.4236 11.5632C15.9723 11.3762 15.4885 11.28 15 11.28ZM29.895 7.605C29.8871 6.44664 29.6738 5.29886 29.265 4.215C28.9639 3.42189 28.4981 2.70164 27.8982 2.10178C27.2984 1.50192 26.5781 1.03608 25.785 0.735C24.7011 0.326196 23.5534 0.112891 22.395 0.105C20.46 -1.00583e-07 19.89 0 15 0C10.11 0 9.54 -1.00583e-07 7.605 0.105C6.44664 0.112891 5.29886 0.326196 4.215 0.735C3.42189 1.03608 2.70164 1.50192 2.10178 2.10178C1.50192 2.70164 1.03608 3.42189 0.735 4.215C0.326196 5.29886 0.112891 6.44664 0.105 7.605C-1.00583e-07 9.54 0 10.11 0 15C0 19.89 -1.00583e-07 20.46 0.105 22.395C0.121146 23.5574 0.334161 24.7087 0.735 25.8C1.03474 26.5895 1.50019 27.3056 2.1 27.9C2.69729 28.5035 3.41908 28.9693 4.215 29.265C5.29886 29.6738 6.44664 29.8871 7.605 29.895C9.54 30 10.11 30 15 30C19.89 30 20.46 30 22.395 29.895C23.5534 29.8871 24.7011 29.6738 25.785 29.265C26.5809 28.9693 27.3027 28.5035 27.9 27.9C28.4998 27.3056 28.9653 26.5895 29.265 25.8C29.6734 24.7108 29.8867 23.5582 29.895 22.395C30 20.46 30 19.89 30 15C30 10.11 30 9.54 29.895 7.605ZM26.085 19.605C26.0369 20.5307 25.8393 21.4424 25.5 22.305C25.2088 23.0245 24.7759 23.6782 24.227 24.227C23.6782 24.7759 23.0245 25.2088 22.305 25.5C21.4343 25.8204 20.5174 25.9977 19.59 26.025C18.405 26.025 18.09 26.025 15 26.025C11.91 26.025 11.595 26.025 10.41 26.025C9.4826 25.9977 8.56573 25.8204 7.695 25.5C6.95115 25.2236 6.27942 24.7826 5.73 24.21C5.1865 23.6719 4.76677 23.0218 4.5 22.305C4.17834 21.4352 4.00591 20.5173 3.99 19.59C3.99 18.405 3.99 18.09 3.99 15C3.99 11.91 3.99 11.595 3.99 10.41C4.00591 9.48274 4.17834 8.56483 4.5 7.695C4.77642 6.95115 5.21741 6.27942 5.79 5.73C6.3305 5.18944 6.9799 4.77014 7.695 4.5C8.56573 4.17961 9.4826 4.00231 10.41 3.975C11.595 3.975 11.91 3.975 15 3.975C18.09 3.975 18.405 3.975 19.59 3.975C20.5174 4.00231 21.4343 4.17961 22.305 4.5C23.0488 4.77642 23.7206 5.21741 24.27 5.79C24.8135 6.32812 25.2332 6.9782 25.5 7.695C25.8204 8.56573 25.9977 9.4826 26.025 10.41C26.025 11.595 26.025 11.91 26.025 15C26.025 18.09 26.13 18.405 26.085 19.59V19.605ZM23.685 8.445C23.5064 7.96048 23.2248 7.52046 22.8597 7.15532C22.4945 6.79018 22.0545 6.50859 21.57 6.33C20.9047 6.09939 20.204 5.98769 19.5 6C18.33 6 18 6 15 6C12 6 11.67 6 10.5 6C9.7924 6.00692 9.0916 6.13895 8.43 6.39C7.95289 6.56048 7.51754 6.83057 7.15288 7.1823C6.78821 7.53403 6.50259 7.95936 6.315 8.43C6.09717 9.09805 5.99074 9.79739 6 10.5C6 11.67 6 12 6 15C6 18 6 18.33 6 19.5C6.01487 20.2068 6.14665 20.9062 6.39 21.57C6.5686 22.0545 6.85018 22.4945 7.21532 22.8597C7.58046 23.2248 8.02048 23.5064 8.505 23.685C9.145 23.9204 9.81848 24.052 10.5 24.075C11.67 24.075 12 24.075 15 24.075C18 24.075 18.33 24.075 19.5 24.075C20.2076 24.0681 20.9084 23.9361 21.57 23.685C22.0545 23.5064 22.4945 23.2248 22.8597 22.8597C23.2248 22.4945 23.5064 22.0545 23.685 21.57C23.9361 20.9084 24.0681 20.2076 24.075 19.5C24.075 18.33 24.075 18 24.075 15C24.075 12 24.075 11.67 24.075 10.5C24.0754 9.7917 23.9432 9.08958 23.685 8.43V8.445ZM15 20.73C14.2482 20.73 13.5038 20.5817 12.8095 20.2935C12.1151 20.0054 11.4845 19.5831 10.9536 19.0508C10.4227 18.5185 10.002 17.8868 9.71572 17.1916C9.42939 16.4965 9.28303 15.7518 9.285 15C9.285 13.8661 9.62144 12.7576 10.2517 11.815C10.882 10.8724 11.7778 10.138 12.8257 9.70475C13.8736 9.2715 15.0265 9.15891 16.1384 9.38122C17.2503 9.60353 18.2713 10.1508 19.072 10.9536C19.8728 11.7565 20.4173 12.7789 20.6367 13.8914C20.8561 15.0039 20.7405 16.1564 20.3045 17.2032C19.8685 18.2499 19.1318 19.1438 18.1875 19.7716C17.2432 20.3994 16.1339 20.733 15 20.73ZM21 10.395C20.6684 10.3599 20.3615 10.2033 20.1385 9.95546C19.9155 9.70758 19.7921 9.38594 19.7921 9.0525C19.7921 8.71906 19.9155 8.39742 20.1385 8.14954C20.3615 7.90167 20.6684 7.7451 21 7.71C21.3316 7.7451 21.6385 7.90167 21.8615 8.14954C22.0845 8.39742 22.2079 8.71906 22.2079 9.0525C22.2079 9.38594 22.0845 9.70758 21.8615 9.95546C21.6385 10.2033 21.3316 10.3599 21 10.395Z" fill="#CE93D8"/>
</symbol><symbol id="vk" viewBox="0 0 25 25">
<path d="M16.3412 0H8.67188C1.66664 0 0 1.66664 0 8.65882V16.3281C0 23.3333 1.65368 25 8.65882 25H16.3281C23.3334 25 25 23.3463 25 16.3411V8.67188C25 1.66664 23.3463 0 16.3412 0ZM20.1823 17.8385H18.3594C17.6693 17.8385 17.4609 17.2786 16.224 16.0416C15.1432 15 14.6875 14.8698 14.4141 14.8698C14.0365 14.8698 13.9323 14.9739 13.9323 15.4948V17.1354C13.9323 17.5781 13.7891 17.8385 12.6302 17.8385C11.5057 17.763 10.4152 17.4213 9.4486 16.8418C8.48196 16.2623 7.66682 15.4614 7.07031 14.5052C5.6542 12.7425 4.66888 10.6738 4.19274 8.46351C4.19274 8.19007 4.29688 7.94266 4.81774 7.94266H6.64062C7.10938 7.94266 7.27868 8.15101 7.46094 8.63281C8.34632 11.2369 9.8568 13.5026 10.4688 13.5026C10.7031 13.5026 10.8073 13.3984 10.8073 12.8125V10.1302C10.7291 8.90625 10.0781 8.80204 10.0781 8.35938C10.0867 8.24259 10.1404 8.13374 10.228 8.05593C10.3155 7.97813 10.4299 7.9375 10.5469 7.94266H13.4115C13.8021 7.94266 13.9323 8.13797 13.9323 8.60672V12.2266C13.9323 12.6172 14.1016 12.7473 14.2188 12.7473C14.4531 12.7473 14.6354 12.6172 15.0651 12.1875C15.9884 11.0615 16.7429 9.80698 17.3047 8.46351C17.362 8.30186 17.4707 8.16342 17.6142 8.06937C17.7576 7.97531 17.9279 7.93081 18.099 7.94266H19.9219C20.4688 7.94266 20.5859 8.2161 20.4688 8.60672C19.8055 10.0921 18.9848 11.5021 18.0209 12.8125C17.8256 13.1119 17.7474 13.2682 18.0209 13.6198C18.2031 13.8932 18.8412 14.427 19.2709 14.9348C19.8958 15.5583 20.4148 16.2796 20.8073 17.0703C20.9635 17.5781 20.7031 17.8385 20.1823 17.8385Z" fill="currentColor"/>
</symbol><symbol id="wtsapp" viewBox="0 0 25 25">
<path d="M25 5.6875C24.986 5.14822 24.9442 4.61001 24.875 4.075C24.7817 3.60641 24.6261 3.15239 24.4125 2.725C24.1891 2.26138 23.889 1.83878 23.525 1.475C23.1576 1.11526 22.7358 0.815739 22.275 0.5875C21.847 0.378055 21.393 0.226717 20.925 0.1375C20.3951 0.0581242 19.8607 0.0122001 19.325 0H5.6875C5.14822 0.0140455 4.61001 0.055767 4.075 0.125C3.60641 0.218335 3.15239 0.373879 2.725 0.5875C2.26138 0.810921 1.83878 1.11097 1.475 1.475C1.11526 1.84239 0.815739 2.26424 0.5875 2.725C0.378055 3.15295 0.226717 3.60697 0.1375 4.075C0.0581242 4.60492 0.0122001 5.13931 0 5.675C0 5.9125 0 6.25 0 6.35V18.65C0 18.7875 0 19.0875 0 19.3125C0.0140455 19.8518 0.055767 20.39 0.125 20.925C0.218335 21.3936 0.373879 21.8476 0.5875 22.275C0.810921 22.7386 1.11097 23.1612 1.475 23.525C1.84239 23.8847 2.26424 24.1843 2.725 24.4125C3.15295 24.6219 3.60697 24.7733 4.075 24.8625C4.60492 24.9419 5.13931 24.9878 5.675 25H19.3125C19.8518 24.986 20.39 24.9442 20.925 24.875C21.3936 24.7817 21.8476 24.6261 22.275 24.4125C22.7386 24.1891 23.1612 23.889 23.525 23.525C23.8847 23.1576 24.1843 22.7358 24.4125 22.275C24.6219 21.847 24.7733 21.393 24.8625 20.925C24.9419 20.3951 24.9878 19.8607 25 19.325C25 19.0875 25 18.7875 25 18.65V6.35C25 6.25 25 5.9125 25 5.6875ZM12.7875 21.25C11.2863 21.2426 9.81142 20.8556 8.5 20.125L3.75 21.375L5 16.725C4.19389 15.3706 3.76248 13.8261 3.75 12.25C3.75498 10.4787 4.284 8.74839 5.27045 7.27713C6.2569 5.80587 7.65665 4.65941 9.29341 3.98214C10.9302 3.30488 12.7307 3.12709 14.4684 3.47117C16.206 3.81526 17.8029 4.66583 19.058 5.91575C20.3132 7.16568 21.1704 8.75907 21.5217 10.4952C21.873 12.2314 21.7027 14.0327 21.0322 15.6723C20.3618 17.3118 19.2211 18.7163 17.754 19.7089C16.2869 20.7014 14.5588 21.2377 12.7875 21.25ZM12.7875 4.8375C11.4623 4.85266 10.1647 5.21873 9.02695 5.89842C7.88918 6.57811 6.95185 7.54716 6.31037 8.7069C5.66889 9.86664 5.34619 11.1756 5.37511 12.5007C5.40402 13.8257 5.78354 15.1194 6.475 16.25L6.65 16.5375L5.9 19.275L8.75 18.5L9.025 18.6625C10.162 19.3322 11.4555 19.6901 12.775 19.7C14.7641 19.7 16.6718 18.9098 18.0783 17.5033C19.4848 16.0968 20.275 14.1891 20.275 12.2C20.275 10.2109 19.4848 8.30322 18.0783 6.8967C16.6718 5.49018 14.7641 4.7 12.775 4.7L12.7875 4.8375ZM17.1625 15.4875C16.9988 15.7606 16.7796 15.9963 16.519 16.1793C16.2585 16.3623 15.9624 16.4886 15.65 16.55C15.1832 16.6353 14.7026 16.6053 14.25 16.4625C13.8242 16.3294 13.4068 16.1708 13 15.9875C11.4547 15.2121 10.1368 14.0492 9.175 12.6125C8.65235 11.9468 8.33523 11.1432 8.2625 10.3C8.25506 9.94974 8.32132 9.60182 8.45698 9.27881C8.59264 8.9558 8.79469 8.66491 9.05 8.425C9.1252 8.33973 9.21747 8.2712 9.32082 8.22383C9.42417 8.17646 9.53632 8.15131 9.65 8.15H10C10.1375 8.15 10.325 8.15 10.5 8.5375C10.675 8.925 11.1375 10.0875 11.2 10.2C11.2307 10.26 11.2467 10.3264 11.2467 10.3937C11.2467 10.4611 11.2307 10.5275 11.2 10.5875C11.1447 10.7233 11.0688 10.8498 10.975 10.9625C10.8625 11.1 10.7375 11.2625 10.6375 11.3625C10.5375 11.4625 10.4125 11.5875 10.5375 11.8125C10.8776 12.3865 11.2986 12.9085 11.7875 13.3625C12.3199 13.8329 12.9286 14.2092 13.5875 14.475C13.8125 14.5875 13.95 14.575 14.075 14.475C14.2 14.375 14.6375 13.825 14.7875 13.6C14.9375 13.375 15.0875 13.4125 15.2875 13.4875C15.4875 13.5625 16.6 14.1 16.825 14.2125C17.05 14.325 17.1875 14.375 17.25 14.475C17.3042 14.8022 17.2741 15.1377 17.1625 15.45V15.4875Z" fill="currentColor"/>
</symbol></svg>