<svg width="38" height="35" viewBox="0 0 38 35" fill="none" xmlns="http://www.w3.org/2000/svg">
<path d="M37.9363 13.2329C37.8164 12.8983 37.5985 12.6044 37.3088 12.3869C37.0192 12.1694 36.6703 12.0375 36.3045 12.0073L25.5082 10.4891L20.6698 1.03189C20.5144 0.722621 20.2718 0.461795 19.9698 0.279295C19.6678 0.0967942 19.3185 0 18.9621 0C18.6056 0 18.2564 0.0967942 17.9544 0.279295C17.6524 0.461795 17.4098 0.722621 17.2544 1.03189L12.416 10.4708L1.61969 12.0073C1.26852 12.0555 0.938375 12.1975 0.666715 12.4174C0.395054 12.6372 0.192758 12.9261 0.0827839 13.2512C-0.0178836 13.5689 -0.0269173 13.907 0.0566522 14.2293C0.140222 14.5516 0.31324 14.8458 0.557138 15.0805L8.39347 22.3974L6.49605 32.7875C6.41945 33.1322 6.44777 33.4908 6.57762 33.8204C6.70746 34.1499 6.93329 34.4362 7.22794 34.6449C7.5226 34.8536 7.87353 34.9758 8.23851 34.9968C8.60349 35.0177 8.96698 34.9366 9.28526 34.7631L18.9621 29.879L28.6389 34.7631C28.9052 34.9079 29.206 34.9836 29.5117 34.9826C29.9137 34.984 30.3056 34.8623 30.6312 34.635C30.9256 34.4317 31.1535 34.1515 31.288 33.8273C31.4224 33.5032 31.4579 33.1487 31.3902 32.8058L29.4928 22.4157L37.3291 15.0988C37.603 14.875 37.8055 14.5809 37.913 14.2506C38.0205 13.9203 38.0285 13.5674 37.9363 13.2329ZM26.2671 20.5499C26.0475 20.7555 25.8828 21.0093 25.787 21.2896C25.6911 21.5699 25.6671 21.8684 25.7169 22.1596L27.083 29.8424L19.9487 26.1839C19.6715 26.0517 19.3663 25.9829 19.057 25.9829C18.7476 25.9829 18.4424 26.0517 18.1652 26.1839L11.0309 29.8424L12.397 22.1596C12.4468 21.8684 12.4228 21.5699 12.327 21.2896C12.2311 21.0093 12.0664 20.7555 11.8468 20.5499L6.15452 15.0622L14.1426 13.9463C14.45 13.9051 14.7422 13.7918 14.9936 13.6164C15.245 13.441 15.448 13.2088 15.5847 12.9402L18.9621 5.97084L22.5292 12.9585C22.6659 13.2271 22.8689 13.4593 23.1203 13.6347C23.3717 13.8101 23.6639 13.9234 23.9713 13.9646L31.9594 15.0805L26.2671 20.5499Z" fill="#CE93D8"/>
</svg>
