<svg width="19" height="19" viewBox="0 0 19 19" fill="none" xmlns="http://www.w3.org/2000/svg">
<path d="M18.05 1.9H15.2V0.95C15.2 0.698044 15.0999 0.456408 14.9218 0.278249C14.7436 0.100089 14.502 0 14.25 0H4.75C4.49804 0 4.25641 0.100089 4.07825 0.278249C3.90009 0.456408 3.8 0.698044 3.8 0.95V1.9H0.95C0.698044 1.9 0.456408 2.00009 0.278249 2.17825C0.100089 2.35641 0 2.59804 0 2.85V5.7C0 6.70782 0.400356 7.67437 1.11299 8.38701C1.82563 9.09964 2.79218 9.5 3.8 9.5H5.263C6.12231 10.4587 7.28086 11.0982 8.55 11.3145V13.3H7.6C6.84413 13.3 6.11922 13.6003 5.58475 14.1347C5.05027 14.6692 4.75 15.3941 4.75 16.15V18.05C4.75 18.302 4.85009 18.5436 5.02825 18.7218C5.20641 18.8999 5.44804 19 5.7 19H13.3C13.552 19 13.7936 18.8999 13.9718 18.7218C14.1499 18.5436 14.25 18.302 14.25 18.05V16.15C14.25 15.3941 13.9497 14.6692 13.4153 14.1347C12.8808 13.6003 12.1559 13.3 11.4 13.3H10.45V11.3145C11.7191 11.0982 12.8777 10.4587 13.737 9.5H15.2C16.2078 9.5 17.1744 9.09964 17.887 8.38701C18.5996 7.67437 19 6.70782 19 5.7V2.85C19 2.59804 18.8999 2.35641 18.7218 2.17825C18.5436 2.00009 18.302 1.9 18.05 1.9ZM3.8 7.6C3.29609 7.6 2.81282 7.39982 2.4565 7.0435C2.10018 6.68718 1.9 6.20391 1.9 5.7V3.8H3.8V5.7C3.80209 6.34762 3.91453 6.99015 4.1325 7.6H3.8ZM11.4 15.2C11.652 15.2 11.8936 15.3001 12.0718 15.4782C12.2499 15.6564 12.35 15.898 12.35 16.15V17.1H6.65V16.15C6.65 15.898 6.75009 15.6564 6.92825 15.4782C7.10641 15.3001 7.34804 15.2 7.6 15.2H11.4ZM13.3 5.7C13.3 6.70782 12.8996 7.67437 12.187 8.38701C11.4744 9.09964 10.5078 9.5 9.5 9.5C8.49218 9.5 7.52563 9.09964 6.81299 8.38701C6.10036 7.67437 5.7 6.70782 5.7 5.7V1.9H13.3V5.7ZM17.1 5.7C17.1 6.20391 16.8998 6.68718 16.5435 7.0435C16.1872 7.39982 15.7039 7.6 15.2 7.6H14.8675C15.0855 6.99015 15.1979 6.34762 15.2 5.7V3.8H17.1V5.7Z" fill="#CE93D8"/>
</svg>
