<svg width="19" height="19" viewBox="0 0 19 19" fill="none" xmlns="http://www.w3.org/2000/svg">
<path d="M18.2 0.178493C17.5199 0.0625063 16.8313 0.00280386 16.1412 4.08668e-06C13.7868 -0.00190713 11.4814 0.666587 9.5 1.9258C7.51348 0.68312 5.20851 0.0310337 2.85881 0.0469747C2.16874 0.0497745 1.4801 0.109477 0.800043 0.225463C0.577285 0.263489 0.375558 0.379018 0.231191 0.551245C0.086823 0.723472 0.00930196 0.941078 0.0125881 1.16488V12.4378C0.0105562 12.5759 0.0392726 12.7126 0.096694 12.8384C0.154115 12.9642 0.238831 13.076 0.344812 13.1656C0.450793 13.2553 0.575436 13.3208 0.709871 13.3574C0.844306 13.3939 0.98523 13.4007 1.12262 13.3773C2.48218 13.1442 3.8751 13.1828 5.21934 13.491C6.56358 13.7991 7.83195 14.3705 8.94973 15.1715L9.06358 15.2373H9.16794C9.27316 15.2807 9.38601 15.303 9.5 15.303C9.61399 15.303 9.72684 15.2807 9.83206 15.2373H9.93642L10.0503 15.1715C11.1603 14.3526 12.425 13.7627 13.7695 13.4368C15.114 13.1108 16.5109 13.0554 17.8774 13.2739C18.0148 13.2974 18.1557 13.2906 18.2901 13.254C18.4246 13.2175 18.5492 13.152 18.6552 13.0623C18.7612 12.9726 18.8459 12.8609 18.9033 12.7351C18.9607 12.6093 18.9894 12.4725 18.9874 12.3345V1.06154C18.9775 0.847499 18.8941 0.64323 18.7508 0.482616C18.6076 0.322002 18.4132 0.214695 18.2 0.178493ZM8.55126 12.6633C6.79598 11.749 4.84217 11.2718 2.85881 11.273C2.54573 11.273 2.23264 11.273 1.91007 11.273V1.87883C2.22606 1.8608 2.54283 1.8608 2.85881 1.87883C4.88284 1.87662 6.8627 2.46473 8.55126 3.56978V12.6633ZM17.0899 11.3105C16.7674 11.3105 16.4543 11.3105 16.1412 11.3105C14.1578 11.3093 12.204 11.7865 10.4487 12.7009V3.56978C12.1373 2.46473 14.1172 1.87662 16.1412 1.87883C16.4572 1.8608 16.7739 1.8608 17.0899 1.87883V11.3105ZM18.2 15.2091C17.5199 15.0931 16.8313 15.0334 16.1412 15.0306C13.7868 15.0287 11.4814 15.6972 9.5 16.9564C7.51857 15.6972 5.21324 15.0287 2.85881 15.0306C2.16874 15.0334 1.4801 15.0931 0.800043 15.2091C0.676543 15.2285 0.558136 15.2719 0.45163 15.3368C0.345124 15.4017 0.252621 15.4867 0.17944 15.5871C0.106259 15.6875 0.0538445 15.8013 0.0252099 15.9218C-0.00342464 16.0423 -0.00771411 16.1673 0.0125881 16.2894C0.0608019 16.5334 0.204699 16.7485 0.412758 16.8876C0.620817 17.0267 0.876075 17.0785 1.12262 17.0316C2.48218 16.7985 3.8751 16.8372 5.21934 17.1453C6.56358 17.4535 7.83195 18.0249 8.94973 18.8258C9.11041 18.9391 9.30275 19 9.5 19C9.69725 19 9.88959 18.9391 10.0503 18.8258C11.1681 18.0249 12.4364 17.4535 13.7807 17.1453C15.1249 16.8372 16.5178 16.7985 17.8774 17.0316C18.1239 17.0785 18.3792 17.0267 18.5872 16.8876C18.7953 16.7485 18.9392 16.5334 18.9874 16.2894C19.0077 16.1673 19.0034 16.0423 18.9748 15.9218C18.9462 15.8013 18.8937 15.6875 18.8206 15.5871C18.7474 15.4867 18.6549 15.4017 18.5484 15.3368C18.4419 15.2719 18.3235 15.2285 18.2 15.2091Z" fill="#CE93D8"/>
</svg>
