<svg width="19" height="19" viewBox="0 0 19 19" fill="none" xmlns="http://www.w3.org/2000/svg">
<path d="M12.084 6.4505L8.0085 10.5355L6.441 8.968C6.35584 8.86855 6.25104 8.78778 6.13317 8.73076C6.01531 8.67374 5.88694 8.64169 5.7561 8.63664C5.62527 8.63159 5.4948 8.65363 5.3729 8.70139C5.25099 8.74915 5.14027 8.8216 5.04769 8.91418C4.9551 9.00676 4.88266 9.11748 4.8349 9.23939C4.78714 9.3613 4.76509 9.49177 4.77014 9.6226C4.7752 9.75343 4.80724 9.88181 4.86426 9.99967C4.92129 10.1175 5.00206 10.2223 5.1015 10.3075L7.334 12.5495C7.42277 12.6375 7.52805 12.7072 7.64379 12.7545C7.75954 12.8018 7.88348 12.8257 8.0085 12.825C8.25773 12.8239 8.49656 12.725 8.6735 12.5495L13.4235 7.7995C13.5125 7.71118 13.5832 7.60611 13.6314 7.49035C13.6797 7.37458 13.7045 7.25041 13.7045 7.125C13.7045 6.99959 13.6797 6.87542 13.6314 6.75965C13.5832 6.64388 13.5125 6.53881 13.4235 6.4505C13.2455 6.27356 13.0047 6.17425 12.7538 6.17425C12.5028 6.17425 12.262 6.27356 12.084 6.4505ZM9.5 0C7.62108 0 5.78435 0.557165 4.22209 1.60104C2.65982 2.64491 1.44218 4.12861 0.723149 5.86451C0.0041162 7.6004 -0.184015 9.51054 0.182544 11.3534C0.549104 13.1962 1.45389 14.8889 2.78249 16.2175C4.11109 17.5461 5.80383 18.4509 7.64665 18.8175C9.48946 19.184 11.3996 18.9959 13.1355 18.2769C14.8714 17.5578 16.3551 16.3402 17.399 14.7779C18.4428 13.2156 19 11.3789 19 9.5C19 8.25244 18.7543 7.0171 18.2769 5.86451C17.7994 4.71191 17.0997 3.66464 16.2175 2.78248C15.3354 1.90033 14.2881 1.20056 13.1355 0.723144C11.9829 0.245725 10.7476 0 9.5 0ZM9.5 17.1C7.99686 17.1 6.52748 16.6543 5.27767 15.8192C4.02786 14.9841 3.05375 13.7971 2.47852 12.4084C1.90329 11.0197 1.75279 9.49157 2.04604 8.01731C2.33928 6.54306 3.06311 5.18887 4.12599 4.12599C5.18887 3.06311 6.54306 2.33928 8.01732 2.04603C9.49157 1.75278 11.0197 1.90329 12.4084 2.47852C13.7971 3.05374 14.9841 4.02785 15.8192 5.27766C16.6543 6.52748 17.1 7.99686 17.1 9.5C17.1 11.5156 16.2993 13.4487 14.874 14.874C13.4487 16.2993 11.5156 17.1 9.5 17.1Z" fill="#CE93D8"/>
</svg>
