<svg width="700" height="700" viewBox="0 0 700 700" fill="none" xmlns="http://www.w3.org/2000/svg">
<path d="M678 448.404C675.939 446.106 632.374 398.167 569.855 375.335C597.007 317.371 592.188 254.501 591.897 251.049L590.417 233.538L571.972 232.135C568.802 231.894 502.289 227.24 441.075 253.065C417.102 193.852 366.867 152.631 364.09 150.387L350.003 139L335.915 150.387C333.138 152.631 282.902 193.852 258.93 253.065C197.716 227.241 131.205 231.895 128.033 232.135L109.588 233.538L108.109 251.049C107.818 254.501 102.998 317.373 130.15 375.335C67.6287 398.167 24.0635 446.106 22.0023 448.404L10 461.78L21.9956 475.156C25.1087 478.626 99.3191 560.147 194.269 560.147C264.034 560.147 322.602 516.138 349.999 491.414C377.395 516.138 435.963 560.147 505.728 560.147C600.68 560.147 674.887 478.628 678.002 475.156L690 461.78L678 448.404ZM291.617 483.957C268.512 499.891 232.865 518.886 194.271 518.886C140.139 518.886 91.685 482.222 68.8771 461.781C85.6009 446.79 116.1 423.11 152.55 411.524C156.828 416.824 161.502 421.937 166.616 426.795C204.497 462.757 257.022 475.932 296.478 480.525C294.899 481.666 293.28 482.813 291.617 483.957ZM197.349 397.621C159.071 361.282 152.117 302.828 151.216 273.063C174.205 273.688 213.41 277.419 247.817 293.696C246.894 300.316 246.39 307.069 246.39 313.939C246.39 364.822 273.748 409.426 298.238 439.162C266.246 435.087 225.606 424.446 197.349 397.621ZM349.971 433.01C343.305 426.323 334.994 417.273 326.642 406.355C309.859 384.419 289.851 350.578 289.851 313.938C289.851 262.519 328.506 216.502 350.032 194.864C356.696 201.552 365.009 210.601 373.36 221.521C390.144 243.456 410.152 277.298 410.152 313.938C410.152 365.355 371.497 411.372 349.971 433.01ZM453.611 313.938C453.611 307.069 453.106 300.316 452.185 293.696C486.62 277.404 525.862 273.681 548.835 273.059C548 302.77 541.129 361.092 502.652 397.62C474.544 424.304 433.882 434.953 401.843 439.068C426.311 409.33 453.611 364.767 453.611 313.938ZM603.076 483.957C579.97 499.891 544.323 518.886 505.729 518.886C465.979 518.886 429.293 499.117 403.574 480.518C443.026 475.917 495.521 462.738 533.381 426.794C538.498 421.936 543.17 416.823 547.447 411.522C583.927 423.119 614.447 446.825 631.153 461.808C624.108 468.135 614.576 476.028 603.076 483.957Z" fill="#97689F"/>
</svg>
