<svg width="40" height="51" viewBox="0 0 40 51" fill="none" xmlns="http://www.w3.org/2000/svg">
<path fill-rule="evenodd" clip-rule="evenodd" d="M5.85786 5.975C9.60859 2.14927 14.6957 0 20 0C25.3043 0 30.3914 2.14927 34.1421 5.975C37.8929 9.80073 40 14.9895 40 20.3999C40 34.1699 22.5 49.7248 21.625 50.3878C21.1722 50.7829 20.5959 51 20 51C19.4041 51 18.8278 50.7829 18.375 50.3878L18.3708 50.3842C17.5625 49.6696 0 34.1455 0 20.3999C0 14.9895 2.10714 9.80073 5.85786 5.975ZM20 10.2002C18.0222 10.2002 16.0888 10.7984 14.4443 11.9192C12.7998 13.04 11.5181 14.633 10.7612 16.4968C10.0043 18.3606 9.8063 20.4115 10.1922 22.3901C10.578 24.3687 11.5304 26.1861 12.9289 27.6126C14.3275 29.0391 16.1093 30.0106 18.0491 30.4041C19.9889 30.7977 21.9996 30.5957 23.8268 29.8237C25.6541 29.0517 27.2159 27.7443 28.3147 26.067C29.4135 24.3896 30 22.4175 30 20.4002C30 17.695 28.9464 15.1006 27.0711 13.1877C25.1957 11.2748 22.6522 10.2002 20 10.2002Z" fill="#AB47BC"/>
</svg>
