<svg width="25" height="25" viewBox="0 0 25 25" fill="none" xmlns="http://www.w3.org/2000/svg">
<path d="M16.3412 0H8.67188C1.66664 0 0 1.66664 0 8.65882V16.3281C0 23.3333 1.65368 25 8.65882 25H16.3281C23.3334 25 25 23.3463 25 16.3411V8.67188C25 1.66664 23.3463 0 16.3412 0ZM20.1823 17.8385H18.3594C17.6693 17.8385 17.4609 17.2786 16.224 16.0416C15.1432 15 14.6875 14.8698 14.4141 14.8698C14.0365 14.8698 13.9323 14.9739 13.9323 15.4948V17.1354C13.9323 17.5781 13.7891 17.8385 12.6302 17.8385C11.5057 17.763 10.4152 17.4213 9.4486 16.8418C8.48196 16.2623 7.66682 15.4614 7.07031 14.5052C5.6542 12.7425 4.66888 10.6738 4.19274 8.46351C4.19274 8.19007 4.29688 7.94266 4.81774 7.94266H6.64062C7.10938 7.94266 7.27868 8.15101 7.46094 8.63281C8.34632 11.2369 9.8568 13.5026 10.4688 13.5026C10.7031 13.5026 10.8073 13.3984 10.8073 12.8125V10.1302C10.7291 8.90625 10.0781 8.80204 10.0781 8.35938C10.0867 8.24259 10.1404 8.13374 10.228 8.05593C10.3155 7.97813 10.4299 7.9375 10.5469 7.94266H13.4115C13.8021 7.94266 13.9323 8.13797 13.9323 8.60672V12.2266C13.9323 12.6172 14.1016 12.7473 14.2188 12.7473C14.4531 12.7473 14.6354 12.6172 15.0651 12.1875C15.9884 11.0615 16.7429 9.80698 17.3047 8.46351C17.362 8.30186 17.4707 8.16342 17.6142 8.06937C17.7576 7.97531 17.9279 7.93081 18.099 7.94266H19.9219C20.4688 7.94266 20.5859 8.2161 20.4688 8.60672C19.8055 10.0921 18.9848 11.5021 18.0209 12.8125C17.8256 13.1119 17.7474 13.2682 18.0209 13.6198C18.2031 13.8932 18.8412 14.427 19.2709 14.9348C19.8958 15.5583 20.4148 16.2796 20.8073 17.0703C20.9635 17.5781 20.7031 17.8385 20.1823 17.8385Z" fill="currentColor"/>
</svg>
